<?xml version="1.0" encoding="iso-8859-1"?>
<!-- Generator: Adobe Illustrator 19.0.0, SVG Export Plug-In . SVG Version: 6.00 Build 0)  -->
<svg version="1.1" id="Capa_1" xmlns="http://www.w3.org/2000/svg" xmlns:xlink="http://www.w3.org/1999/xlink" x="0px" y="0px"
	 viewBox="0 0 512 512" style="enable-background:new 0 0 512 512;" xml:space="preserve">
<g>
	<rect x="185.379" y="418.957" style="fill:#95A5A5;" width="141.241" height="80.066"/>
	<path style="fill:#BDC3C7;" d="M476.69,79.448H35.31c-9.366-0.003-18.349,3.717-24.971,10.339S-0.003,105.393,0,114.759v291.31
		c-0.003,9.366,3.717,18.348,10.339,24.971c6.623,6.622,15.605,10.342,24.971,10.339H476.69c9.366,0.003,18.348-3.717,24.971-10.339
		c6.622-6.623,10.342-15.605,10.339-24.971v-291.31c0.003-9.366-3.717-18.349-10.339-24.971
		C495.038,83.165,486.055,79.446,476.69,79.448z"/>
	<path style="fill:#35495E;" d="M512,370.759v-256c0.003-9.366-3.717-18.348-10.339-24.971
		c-6.623-6.623-15.605-10.342-24.971-10.339H35.31c-9.366-0.003-18.348,3.717-24.971,10.339S-0.003,105.393,0,114.759l0,256H512z"/>
	<path style="fill:#BDC3C7;" d="M123.586,476.69h264.828c4.875,0,8.828,3.952,8.828,8.828v17.655c0,4.875-3.952,8.828-8.828,8.828
		H123.586c-4.875,0-8.828-3.952-8.828-8.828v-17.655C114.759,480.642,118.711,476.69,123.586,476.69z"/>
	<path style="fill:#46B29D;" d="M344.276,194.207l27.454,64.883c1.081,3.429,4.261,5.76,7.857,5.76c3.595,0,6.775-2.331,7.857-5.76
		l27.454-64.883h26.483c9.739-0.029,17.627-7.916,17.655-17.655V17.655C459.006,7.916,451.118,0.029,441.379,0H317.793
		c-9.739,0.029-17.627,7.916-17.655,17.655V35.31L344.276,194.207z"/>
	<path style="fill:#90BAE1;" d="M344.276,112.199c4.454-4.724,9.832-8.48,15.801-11.034c0.088,0,0.177-0.088,0.265-0.088h34.869
		c0.088,0,0.177,0.088,0.265,0.088c17.085,7.152,28.217,23.851,28.248,42.372v7.68c-0.003,4.24-3.44,7.677-7.68,7.68h-71.768
		V112.199z"/>
	<path style="fill:#B0D3F0;" d="M344.276,59.41c5.495-16.392,22.06-26.385,39.123-23.601c17.063,2.784,29.593,17.524,29.593,34.812
		s-12.53,32.028-29.593,34.812c-17.063,2.784-33.628-7.209-39.123-23.601V59.41z"/>
	<path style="fill:#46B29D;" d="M167.724,194.207L140.27,259.09c-1.081,3.429-4.261,5.76-7.857,5.76
		c-3.595,0-6.775-2.331-7.857-5.76l-27.454-64.883H70.621c-9.739-0.029-17.627-7.916-17.655-17.655V17.655
		C52.994,7.916,60.882,0.029,70.621,0h123.586c9.739,0.029,17.627,7.916,17.655,17.655V35.31L167.724,194.207z"/>
	<path style="fill:#4482C3;" d="M344.276,52.966v194.207c-0.029,9.739-7.916,17.627-17.655,17.655h-35.31l-27.454,64.883
		c-1.082,3.428-4.262,5.76-7.857,5.76s-6.775-2.331-7.857-5.76l-27.454-64.883h-35.31c-9.739-0.029-17.627-7.916-17.655-17.655
		V52.966c0.028-9.739,7.916-17.627,17.655-17.655h141.241C336.36,35.339,344.247,43.227,344.276,52.966z"/>
	<path style="fill:#46B29D;" d="M276.127,154.041c19.879,8.148,32.856,27.509,32.839,48.993v8.828
		c-0.014,4.869-3.958,8.813-8.828,8.828h-88.276c-4.869-0.014-8.813-3.958-8.828-8.828v-8.828
		c-0.018-21.484,12.96-40.845,32.839-48.993H276.127z"/>
	<path style="fill:#90BAE1;" d="M167.724,112.199c-4.454-4.724-9.832-8.48-15.801-11.034c-0.088,0-0.177-0.088-0.265-0.088h-34.869
		c-0.088,0-0.177,0.088-0.265,0.088c-17.085,7.152-28.217,23.851-28.248,42.372v7.68c0.003,4.24,3.44,7.677,7.68,7.68h71.768
		V112.199z"/>
	<g>
		<circle style="fill:#F0C419;" cx="132.414" cy="317.793" r="26.483"/>
		<circle style="fill:#F0C419;" cx="379.586" cy="317.793" r="26.483"/>
	</g>
	<path style="fill:#65DDB9;" d="M300.138,114.759c0,24.377-19.761,44.138-44.138,44.138s-44.138-19.761-44.138-44.138
		S231.623,70.621,256,70.621c11.713-0.023,22.953,4.62,31.236,12.902C295.518,91.805,300.161,103.045,300.138,114.759z"/>
	<path style="fill:#B0D3F0;" d="M167.724,59.41c-5.495-16.392-22.06-26.385-39.123-23.601S99.009,53.333,99.009,70.621
		s12.53,32.028,29.593,34.812s33.628-7.209,39.123-23.601V59.41z"/>
</g>
<g>
</g>
<g>
</g>
<g>
</g>
<g>
</g>
<g>
</g>
<g>
</g>
<g>
</g>
<g>
</g>
<g>
</g>
<g>
</g>
<g>
</g>
<g>
</g>
<g>
</g>
<g>
</g>
<g>
</g>
</svg>
