<svg height="512pt" viewBox="0 -46 512 512" width="512pt" xmlns="http://www.w3.org/2000/svg"><path d="m479.859375 10.09375h21.304687v70.796875h-384.285156v-70.796875zm0 0" fill="#5e6e82"/><path d="m116.878906 80.890625h384.285156v257.605469h-107.527343" fill="#e3e3e3"/><path d="m372.332031 81.210938h21.304688v70.800781h-384.289063v-70.800781zm0 0" fill="#5e6e82"/><path d="m9.347656 152.011719h384.289063v257.605469h-384.289063zm0 0" fill="#fff"/><path d="m151.113281 250.914062c0-30.519531 21.949219-55.347656 48.929688-55.347656s48.933593 24.828125 48.933593 55.347656" fill="#fff"/><path d="m177.515625 364.722656h-28.992187c-8.652344 0-15.664063-7.015625-15.664063-15.664062v-82.480469c0-8.652344 7.011719-15.664063 15.664063-15.664063h101.945312c8.652344 0 15.664062 7.011719 15.664062 15.664063v82.480469c0 8.648437-7.011718 15.664062-15.664062 15.664062zm0 0" fill="#ff6379"/><path d="m215.726562 295.96875c0 8.261719-6.699218 14.960938-14.960937 14.960938-8.265625 0-14.964844-6.699219-14.964844-14.960938 0-8.265625 6.699219-14.964844 14.964844-14.964844 8.261719 0 14.960937 6.699219 14.960937 14.964844zm0 0" fill="#fff5f5"/><path d="m123.507812 266.578125v82.480469c0 14.199218 11.554688 25.753906 25.757813 25.753906h101.949219c14.199218 0 25.753906-11.550781 25.753906-25.753906v-82.480469c0-11.390625-7.433594-21.070313-17.703125-24.460937-3.890625-31.9375-28.621094-56.644532-58.476563-56.644532-29.746093 0-54.410156 24.527344-58.433593 56.296875-10.859375 3.027344-18.847657 13-18.847657 24.808594zm133.277344 82.480469c0 3.070312-2.5 5.570312-5.574218 5.570312h-101.949219c-3.070313 0-5.570313-2.5-5.570313-5.570312v-82.484375c0-3.070313 2.5-5.570313 5.570313-5.570313h101.949219c3.074218 0 5.574218 2.5 5.574218 5.570313zm-55.996094-143.398438c18.4375 0 33.90625 15.050782 37.851563 35.160156h-75.707031c3.949218-20.109374 19.417968-35.160156 37.855468-35.160156zm0 0"/><path d="m201.507812 270.914062c-13.816406 0-25.054687 11.238282-25.054687 25.054688 0 10.222656 6.160156 19.03125 14.960937 22.921875v17.550781c0 5.574219 4.519532 10.09375 10.09375 10.09375 5.570313 0 10.089844-4.519531 10.089844-10.09375v-17.550781c8.804688-3.890625 14.964844-12.699219 14.964844-22.925781 0-13.8125-11.242188-25.050782-25.054688-25.050782zm0 20.183594c2.683594 0 4.871094 2.183594 4.871094 4.871094 0 2.683594-2.1875 4.867188-4.871094 4.867188-2.683593 0-4.871093-2.183594-4.871093-4.867188 0-2.6875 2.1875-4.871094 4.871093-4.871094zm0 0"/><path d="m501.90625 0h-384.285156c-5.574219 0-10.09375 4.519531-10.09375 10.09375v61.027344h-97.433594c-5.574219 0-10.09375 4.519531-10.09375 10.089844v328.40625c0 5.570312 4.519531 10.089843 10.09375 10.089843h384.285156c5.570313 0 10.089844-4.519531 10.089844-10.089843v-61.027344h97.4375c5.574219 0 10.09375-4.519532 10.09375-10.09375v-328.402344c0-5.574219-4.519531-10.09375-10.09375-10.09375zm-117.621094 399.523438h-364.101562v-237.417969h364.101562zm0-257.601563h-364.101562v-50.617187h364.101562zm107.53125 186.480469h-87.347656v-237.417969h87.347656zm0-257.601563h-364.101562v-50.617187h364.101562zm0 0"/><path d="m428.289062 118.621094h35.011719v27.457031c0 5.574219 4.519531 10.09375 10.089844 10.09375 5.574219 0 10.09375-4.519531 10.09375-10.09375v-37.550781c0-5.574219-4.519531-10.09375-10.09375-10.09375h-45.101563c-5.570312 0-10.089843 4.519531-10.089843 10.09375 0 5.574218 4.519531 10.09375 10.089843 10.09375zm0 0"/><path d="m428.289062 321.054688h45.101563c5.574219 0 10.09375-4.519532 10.09375-10.09375v-37.546876c0-5.574218-4.519531-10.09375-10.09375-10.09375-5.570313 0-10.089844 4.519532-10.089844 10.09375v27.457032h-35.011719c-5.570312 0-10.089843 4.519531-10.089843 10.089844 0 5.574218 4.519531 10.09375 10.089843 10.09375zm0 0"/><path d="m38.222656 227.289062c5.574219 0 10.09375-4.519531 10.09375-10.089843v-27.460938h35.011719c5.570313 0 10.089844-4.519531 10.089844-10.089843 0-5.574219-4.519531-10.09375-10.089844-10.09375h-45.105469c-5.570312 0-10.089844 4.519531-10.089844 10.09375v37.550781c0 5.570312 4.519532 10.089843 10.089844 10.089843zm0 0"/><path d="m38.222656 392.175781h45.105469c5.570313 0 10.089844-4.519531 10.089844-10.09375s-4.519531-10.09375-10.089844-10.09375h-35.011719v-27.457031c0-5.570312-4.519531-10.089844-10.09375-10.089844-5.570312 0-10.089844 4.519532-10.089844 10.089844v37.550781c0 5.574219 4.519532 10.09375 10.089844 10.09375zm0 0"/><path d="m320.761719 189.738281h35.007812v27.460938c0 5.570312 4.519531 10.089843 10.09375 10.089843s10.09375-4.519531 10.09375-10.089843v-37.550781c0-5.574219-4.519531-10.09375-10.09375-10.09375h-45.101562c-5.574219 0-10.09375 4.519531-10.09375 10.09375 0 5.570312 4.519531 10.089843 10.09375 10.089843zm0 0"/><path d="m320.761719 392.175781h45.101562c5.574219 0 10.09375-4.519531 10.09375-10.09375v-37.550781c0-5.570312-4.519531-10.089844-10.09375-10.089844s-10.09375 4.519532-10.09375 10.089844v27.457031h-35.007812c-5.574219 0-10.09375 4.519531-10.09375 10.09375s4.519531 10.09375 10.09375 10.09375zm0 0"/><path d="m125.09375 190.050781c.769531 0 1.546875-.085937 2.324219-.269531l.347656-.082031c5.425781-1.28125 8.789063-6.714844 7.507813-12.140625-1.28125-5.421875-6.71875-8.785156-12.140626-7.503906l-.34375.082031c-5.425781 1.277343-8.789062 6.710937-7.507812 12.136719 1.09375 4.644531 5.238281 7.777343 9.8125 7.777343zm0 0"/><path d="m45.105469 125.804688c.761719 0 1.535156-.085938 2.308593-.269532l.34375-.082031c5.429688-1.265625 8.800782-6.695313 7.53125-12.121094-1.265624-5.425781-6.691406-8.808593-12.125-7.53125l-.34375.078125c-5.429687 1.269532-8.800781 6.695313-7.53125 12.125 1.085938 4.65625 5.234376 7.800782 9.816407 7.800782zm0 0"/><path d="m78.347656 125.804688c.757813 0 1.527344-.085938 2.296875-.265626l.347657-.082031c5.429687-1.265625 8.804687-6.691406 7.539062-12.117187-1.261719-5.429688-6.6875-8.804688-12.117188-7.542969l-.347656.082031c-5.429687 1.265625-8.804687 6.691406-7.539062 12.117188 1.085937 4.660156 5.234375 7.808594 9.820312 7.808594zm0 0"/><path d="m111.585938 125.804688c.761718 0 1.535156-.085938 2.304687-.269532l.347656-.082031c5.425781-1.265625 8.800781-6.695313 7.53125-12.121094s-6.691406-8.808593-12.125-7.53125l-.34375.078125c-5.429687 1.269532-8.800781 6.695313-7.535156 12.125 1.089844 4.65625 5.238281 7.800782 9.820313 7.800782zm0 0"/><path d="m152.21875 56.914062c.769531 0 1.546875-.089843 2.324219-.273437l.347656-.082031c5.425781-1.28125 8.789063-6.714844 7.507813-12.136719-1.28125-5.425781-6.71875-8.789063-12.140626-7.507813l-.34375.082032c-5.425781 1.277344-8.789062 6.714844-7.507812 12.136718 1.09375 4.648438 5.238281 7.78125 9.8125 7.78125zm0 0"/><path d="m185.460938 56.914062c.765624 0 1.546874-.089843 2.324218-.273437l.347656-.082031c5.425782-1.28125 8.785157-6.714844 7.507813-12.136719-1.28125-5.425781-6.71875-8.789063-12.140625-7.507813l-.347656.082032c-5.425782 1.277344-8.785156 6.714844-7.503906 12.136718 1.09375 4.648438 5.234374 7.78125 9.8125 7.78125zm0 0"/><path d="m218.699219 56.914062c.769531 0 1.550781-.089843 2.332031-.273437l.347656-.082031c5.421875-1.285156 8.78125-6.722656 7.5-12.144532-1.285156-5.425781-6.722656-8.777343-12.144531-7.5l-.347656.082032c-5.421875 1.28125-8.78125 6.71875-7.5 12.144531 1.097656 4.644531 5.242187 7.773437 9.8125 7.773437zm0 0"/><path d="m151.15625 126.707031h47.765625c5.574219 0 10.089844-4.519531 10.089844-10.09375s-4.515625-10.09375-10.089844-10.09375h-47.765625c-5.574219 0-10.09375 4.519531-10.09375 10.09375s4.519531 10.09375 10.09375 10.09375zm0 0"/></svg>