<?xml version="1.0" encoding="UTF-8" standalone="no"?>
<!DOCTYPE svg PUBLIC "-//W3C//DTD SVG 1.1//EN" "http://www.w3.org/Graphics/SVG/1.1/DTD/svg11.dtd">
<svg width="100%" height="100%" viewBox="0 0 596 270" version="1.1" xmlns="http://www.w3.org/2000/svg" xmlns:xlink="http://www.w3.org/1999/xlink" xml:space="preserve" xmlns:serif="http://www.serif.com/" style="fill-rule:evenodd;clip-rule:evenodd;stroke-linejoin:round;stroke-miterlimit:2;">
    <g transform="matrix(1,0,0,1,0,-286.3)">
        <path d="M149.8,436.7C140.9,436.7 133.2,444.4 133.2,453.3C133.2,462.2 140.9,469.9 149.8,469.9C158.7,469.9 166.4,462.2 166.4,453.3C166.3,443.7 158.7,436.7 149.8,436.7" style="fill:rgb(159,207,103);fill-rule:nonzero;"/>
    </g>
    <g transform="matrix(1,0,0,1,0,-286.3)">
        <path d="M41.9,305.7C30.4,305.7 21.1,315.5 21.1,328.9C21.1,341.7 30.4,351.7 41.9,351.7C53.4,351.7 62.7,341.5 62.7,328.9C62.7,316.1 53.4,305.7 41.9,305.7M83.4,365C83.4,391.8 67.4,408.5 41.5,408.5C22.1,408.6 5.4,397.4 2.3,380.3L24.9,380.3C27.6,386.8 35.8,389.2 41.5,389.2C56.1,389.2 62.7,379.6 62.7,365.2L62.7,361.7C56.6,367.6 48.3,370.7 39.1,370.7C17.8,370.7 0.4,351.8 0.4,328.6C0.4,305.3 17.5,286.1 41.9,286.1C66.2,286.1 83.3,305.2 83.3,328.6L83.3,365L83.4,365Z" style="fill-rule:nonzero;"/>
    </g>
    <g transform="matrix(1,0,0,1,0,-286.3)">
        <path d="M142.3,306.2C129.1,303.9 120.3,310.9 120.3,322.4L120.3,369.2L99.8,369.2L99.8,322.4C99.8,299.5 115.7,283.4 142.4,286.8L142.4,306.2L142.3,306.2Z" style="fill-rule:nonzero;"/>
    </g>
    <g transform="matrix(1,0,0,1,0,-286.3)">
        <path d="M206.1,311.8C202.3,307.2 196.7,304.5 190.1,304.5C178.2,304.5 168.7,313.9 168.1,327.7L206.1,311.8ZM229.3,343.4C224.6,359.8 210.3,371 190.2,371C167.3,371 148.8,352.1 148.8,328.8C148.8,305.5 167.3,286.3 190.2,286.3C209.6,286.3 225.9,298.6 229.8,320.1L172.6,344.1C176.6,349.6 182.8,352.7 189.9,352.7C196.6,352.7 203.5,349.7 207,343.3L229.3,343.3L229.3,343.4Z" style="fill-rule:nonzero;"/>
    </g>
    <g transform="matrix(1,0,0,1,0,-286.3)">
        <path d="M296.8,311.8C293,307.2 287.4,304.5 280.8,304.5C268.9,304.5 259.4,313.9 258.8,327.7L296.8,311.8ZM320,343.4C315.3,359.8 301,371 280.9,371C258,371 239.5,352.1 239.5,328.8C239.5,305.5 258,286.3 280.9,286.3C300.3,286.3 316.6,298.6 320.5,320.1L263.5,344.1C267.5,349.6 273.7,352.7 280.8,352.7C287.5,352.7 294.4,349.7 297.9,343.3L320,343.3L320,343.4Z" style="fill-rule:nonzero;"/>
    </g>
    <g transform="matrix(1,0,0,1,0,-286.3)">
        <path d="M370.2,286.3C392.8,286.3 406.1,301.3 406.1,322.4L406.1,369.2L385.3,369.2L385.3,322C385.3,317.4 383.7,306.6 370.1,306.6C361.1,306.6 354.5,312.9 354.5,322L354.5,369.2L333.7,369.2L333.7,322.4C333.8,301.8 348.2,286.3 370.2,286.3" style="fill-rule:nonzero;"/>
    </g>
    <g transform="matrix(1,0,0,1,0,-286.3)">
        <path d="M319.1,485C295.4,487.6 282.8,473.3 282.8,451.2L282.8,383.9L303.6,383.9L303.6,404.4L318.2,404.4L318.2,422.7L303.6,422.7L303.6,451.3C303.6,462.6 308.7,466.8 319.1,466.3L319.1,485Z" style="fill-rule:nonzero;"/>
    </g>
    <g transform="matrix(1,0,0,1,0,-286.3)">
        <path d="M369.2,487C346.6,487 333.3,472 333.3,450.9L333.3,404.4L354.1,404.4L354.1,451.6C354.1,456.2 355.7,467 369.3,467C378.3,467 384.9,460.5 384.9,451.6L384.9,404.4L405.7,404.4L405.7,451C405.5,471.5 391.1,487 369.2,487" style="fill-rule:nonzero;"/>
    </g>
    <g transform="matrix(1,0,0,1,0,-286.3)">
        <path d="M463.3,421.8C451.8,421.8 442.5,432.2 442.5,445C442.5,457.5 451.8,467.8 463.3,467.8C474.8,467.8 484.1,458 484.1,445C483.9,431.7 474.8,421.8 463.3,421.8M463.3,487C438.8,487 421.8,468.1 421.8,444.8L421.8,368.5L442.7,368.5L442.7,412C448.8,405.5 456.9,402.6 466.3,402.6C487.6,402.6 504.9,421.6 504.9,444.8C504.7,468.3 487.6,487 463.3,487" style="fill-rule:nonzero;"/>
    </g>
    <g transform="matrix(1,0,0,1,0,-286.3)">
        <path d="M571.3,427.8C567.5,423.2 561.9,420.5 555.3,420.5C543.4,420.5 533.9,429.9 533.3,443.7L571.3,427.8ZM594.6,459.5C589.9,475.9 575.6,487.1 555.5,487.1C532.6,487.1 514.1,468.2 514.1,444.9C514.1,421.6 532.6,402.4 555.5,402.4C574.9,402.4 591.2,414.7 595.1,436.2L538.1,460.1C542.1,465.6 548.3,468.7 555.4,468.7C562.1,468.7 569,465.7 572.5,459.3L594.6,459.3L594.6,459.5Z" style="fill-rule:nonzero;"/>
    </g>
    <g transform="matrix(1,0,0,1,0,-286.3)">
        <path d="M32.6,453.3C32.6,443.7 25.6,436.7 16.6,436.7C7.7,436.7 0,444.4 0,453.3C0,462.2 7.7,469.9 16.6,469.9C25.6,470 32.6,462.3 32.6,453.3" style="fill-rule:nonzero;"/>
    </g>
    <g transform="matrix(1,0,0,1,0,-286.3)">
        <path d="M60.8,436.7C51.9,436.7 44.2,444.4 44.2,453.3C44.2,462.2 51.2,469.9 60.8,469.9C69.7,469.9 77.4,462.2 77.4,453.3C77.4,443.7 69.7,436.7 60.8,436.7" style="fill-rule:nonzero;"/>
    </g>
    <g transform="matrix(1,0,0,1,0,-286.3)">
        <path d="M105.5,470C114.4,470 121.5,462.3 121.5,453.4C121.5,443.8 114.5,436.8 105.5,436.8C95.9,436.8 88.9,444.5 88.9,453.4C89,462.3 96,470 105.5,470" style="fill-rule:nonzero;"/>
    </g>
    <g transform="matrix(1,0,0,1,0,-286.3)">
        <path d="M211.1,453.3C211.1,443.7 203.4,436.7 194.5,436.7C185.6,436.7 177.9,444.4 177.9,453.3C177.9,462.2 185.6,469.9 194.5,469.9C203.4,470 211.1,462.3 211.1,453.3" style="fill-rule:nonzero;"/>
    </g>
    <g transform="matrix(1,0,0,1,0,-286.3)">
        <path d="M239.3,436.7C230.4,436.7 222.7,444.4 222.7,453.3C222.7,462.2 229.7,469.9 239.3,469.9C248.3,469.9 255.9,462.2 255.9,453.3C255.9,443.7 248.3,436.7 239.3,436.7" style="fill-rule:nonzero;"/>
    </g>
    <g transform="matrix(1,0,0,1,0,-286.3)">
        <path d="M594.6,521.5L0.9,521.5L0.9,523.4L594.6,523.4L594.6,521.5Z" style="fill-rule:nonzero;"/>
    </g>
    <g transform="matrix(1,0,0,1,0,-286.3)">
        <path d="M211.4,535.3L216.3,535.3L223.8,550.1L223.8,535.3L227.6,535.3L227.6,555.3L222.7,555.3L215.2,540.5L215.2,555.3L211.4,555.3L211.4,535.3Z" style="fill-rule:nonzero;"/>
        <path d="M242.4,535C248.6,535 252.1,539.2 252.1,545.2C252.1,551.2 248.6,555.6 242.4,555.6C236.1,555.6 232.7,551.3 232.7,545.2C232.7,539.1 236,535 242.4,535ZM242.4,552.4C246.4,552.4 247.9,548.8 247.9,545.1C247.9,541.6 246.3,538 242.4,538C238.5,538 236.9,541.6 236.9,545.1C236.8,548.9 238.3,552.4 242.4,552.4Z" style="fill-rule:nonzero;"/>
        <path d="M255.2,535.3L259.5,535.3L264.6,550.9L269.6,535.3L273.5,535.3L266.8,555.3L261.9,555.3L255.2,535.3Z" style="fill-rule:nonzero;"/>
        <path d="M286.5,535C292.7,535 296.2,539.2 296.2,545.2C296.2,551.2 292.7,555.6 286.5,555.6C280.2,555.6 276.8,551.3 276.8,545.2C276.8,539.1 280.1,535 286.5,535ZM286.5,552.4C290.5,552.4 292,548.8 292,545.1C292,541.6 290.4,538 286.5,538C282.6,538 281,541.6 281,545.1C280.8,548.9 282.4,552.4 286.5,552.4Z" style="fill-rule:nonzero;"/>
        <path d="M301.3,535.3L307.6,535.3L312.3,550.4L317,535.3L323.3,535.3L323.3,555.3L319.5,555.3L319.5,538.9L314.1,555.3L310.3,555.3L304.9,538.9L304.9,555.2L301.1,555.2L301.3,535.3Z" style="fill-rule:nonzero;"/>
        <path d="M335.4,535.3L339.8,535.3L347.6,555.3L343.2,555.3L341.4,550.7L333.3,550.7L331.5,555.3L327.5,555.3L335.4,535.3ZM337.5,539.3L334.5,547.5L340.3,547.5L337.5,539.3Z" style="fill-rule:nonzero;"/>
        <path d="M353,538.5L347.3,538.5L347.3,535.4L362.7,535.4L362.7,538.5L357,538.5L357,555.2L353,555.2L353,538.5Z" style="fill-rule:nonzero;"/>
        <path d="M366.3,535.3L370.3,535.3L370.3,555.2L366.3,555.2L366.3,535.3Z" style="fill-rule:nonzero;"/>
        <path d="M390.5,554.9C389,555.3 387.5,555.6 385.9,555.6C379.4,555.6 375,552.4 375,545.6C375,538.7 379.2,535 385.9,535C387.2,535 389,535.3 390.3,535.8L390,539.2C388.5,538.4 387.2,538.1 385.7,538.1C381.7,538.1 379,541.2 379,545.4C379,549.4 381.6,552.5 385.7,552.5C387.3,552.5 389.1,552.1 390,551.7L390.5,554.9Z" style="fill-rule:nonzero;"/>
        <path d="M414.6,535.3L419.5,535.3L427,550.1L427,535.3L430.8,535.3L430.8,555.3L426,555.3L418.5,540.5L418.5,555.3L414.7,555.3L414.7,535.3L414.6,535.3Z" style="fill-rule:nonzero;"/>
        <path d="M559.8,535.3L564.1,535.3L569.2,550.9L574.2,535.3L578.1,535.3L571.4,555.3L566.5,555.3L559.8,535.3Z" style="fill-rule:nonzero;"/>
        <path d="M497.4,535.3L501.8,535.3L509.6,555.3L505.2,555.3L503.4,550.7L495.3,550.7L493.5,555.3L489.3,555.3L497.4,535.3ZM499.6,539.3L496.6,547.5L502.4,547.5L499.6,539.3Z" style="fill-rule:nonzero;"/>
        <path d="M440.1,538.4L434.4,538.4L434.4,535.3L449.8,535.3L449.8,538.4L444.1,538.4L444.1,555.1L440.1,555.1L440.1,538.4Z" style="fill-rule:nonzero;"/>
        <path d="M537.3,538.4L531.6,538.4L531.6,535.3L547,535.3L547,538.4L541.3,538.4L541.3,555.1L537.3,555.1L537.3,538.4Z" style="fill-rule:nonzero;"/>
        <path d="M404.7,535.3L408.7,535.3L408.7,555.2L404.7,555.2L404.7,535.3Z" style="fill-rule:nonzero;"/>
        <path d="M551.6,535.3L555.6,535.3L555.6,555.2L551.6,555.2L551.6,535.3Z" style="fill-rule:nonzero;"/>
        <path d="M527.3,554.9C525.8,555.3 524.3,555.6 522.7,555.6C516.2,555.6 511.8,552.4 511.8,545.6C511.8,538.7 516,535 522.7,535C524,535 525.8,535.3 527.1,535.8L526.8,539.2C525.3,538.4 524,538.1 522.5,538.1C518.5,538.1 515.8,541.2 515.8,545.4C515.8,549.4 518.4,552.5 522.5,552.5C524.1,552.5 525.9,552.1 526.8,551.7L527.3,554.9Z" style="fill-rule:nonzero;"/>
        <path d="M472.2,535.3L476.5,535.3C480.8,535.3 485.9,535.2 485.9,540.7C485.9,543 484.3,545 481.9,545.3C483,545.4 483.7,546.5 484.1,547.3L487.3,555.1L482.9,555.1L480.5,548.9C480,547.4 479.4,546.9 477.7,546.9L476.4,546.9L476.4,555.1L472.4,555.1L472.2,535.3ZM476.3,543.7L477.6,543.7C479.6,543.7 481.8,543.4 481.8,540.9C481.8,538.5 479.5,538.3 477.6,538.3L476.3,538.3L476.3,543.7Z" style="fill-rule:nonzero;"/>
        <g>
            <path d="M466.1,546.3L458,546.3L458,552.1L466.9,552.1L466.9,555.1L454.2,555.1L454.2,535.1L466.5,535.1L466.5,538.1L458.1,538.1L458.1,543.2L466.1,543.2L466.1,546.3Z" style="fill-rule:nonzero;"/>
        </g>
        <g>
            <path d="M594.3,546.3L586.3,546.3L586.3,552.1L595.2,552.1L595.2,555.1L582.5,555.1L582.5,535.1L594.8,535.1L594.8,538.1L586.3,538.1L586.3,543.2L594.3,543.2L594.3,546.3Z" style="fill-rule:nonzero;"/>
        </g>
    </g>
</svg>
