<?xml version="1.0" encoding="utf-8"?>
<!-- Generator: Adobe Illustrator 19.2.1, SVG Export Plug-In . SVG Version: 6.00 Build 0)  -->
<svg version="1.1" id="Layer_1" xmlns="http://www.w3.org/2000/svg" xmlns:xlink="http://www.w3.org/1999/xlink" x="0px" y="0px"
	 viewBox="0 0 214 60" style="enable-background:new 0 0 214 60;" xml:space="preserve">
<style type="text/css">
	.st0{fill:#FFFFFF;}
	.st1{fill:#A39161;}
</style>
<g id="Layer_2">
</g>
<g>
	<path class="st0" d="M24.1,30.5l0.9-0.7c0,0-0.4-0.1-0.8-0.3c0,0-0.4-0.1-0.4,0C23.7,29.7,23.8,30.2,24.1,30.5"/>
	<rect class="st1" width="60" height="60"/>
	<path class="st0" d="M40.7,49.9v-0.4h0.4c0.1,0,0.2,0.1,0.2,0.2c0,0.1-0.1,0.2-0.3,0.2H40.7 M40.5,50.7h0.2v-0.6h0.1
		c0.2,0,0.2,0.1,0.4,0.4l0.1,0.2h0.3l-0.2-0.3c-0.1-0.2-0.2-0.3-0.3-0.3l0,0c0.2,0,0.4-0.2,0.4-0.4c0-0.1-0.1-0.4-0.5-0.4h-0.6
		L40.5,50.7L40.5,50.7z M42.1,50c0,0.6-0.5,1.1-1.1,1.1c-0.5-0.1-1-0.5-1-1.1s0.5-1.1,1.1-1.1C41.7,48.9,42.1,49.4,42.1,50 M42.3,50
		c0-0.7-0.6-1.3-1.3-1.3s-1.3,0.6-1.3,1.3s0.6,1.3,1.3,1.3C41.8,51.2,42.3,50.7,42.3,50"/>
	<path class="st0" d="M33,49.5c-0.1-0.7-0.7-1.6-1.7-2.5c-0.9-0.8-0.9-2.3-0.9-2.7h-5.1c-0.4,0.5-0.7,1.2-2.3,2.1
		c-2.1,1.1-2.8,1.5-3.3,3.1L33,49.5"/>
	<path class="st0" d="M32.1,47c1.4,1.1,1.9,1.8,2.2,2.5h4c-0.4-1.5-1.3-2-3.3-3.2c-1.5-0.9-2-1.6-2.3-2H31C31,44.6,31,46.1,32.1,47"
		/>
	<rect x="31" y="39.5" class="st0" width="1.5" height="2.5"/>
	<rect x="25.4" y="39.5" class="st0" width="4.9" height="2.5"/>
	<path class="st0" d="M34.8,36.6c0-0.4-0.3-0.6-0.7-0.6H23.9c-0.4,0-0.7,0.2-0.7,0.6s0.3,0.6,0.7,0.6H34
		C34.4,37.2,34.8,37,34.8,36.6"/>
	<path class="st0" d="M32.8,37.8L32.8,37.8h-7.6c-0.4,0-0.7,0.3-0.7,0.6s0.3,0.6,0.7,0.6h7.6c0.4,0,0.7-0.3,0.7-0.6
		C33.5,38,33.2,37.8,32.8,37.8"/>
	<path class="st0" d="M32.8,42.5L32.8,42.5h-7.6c-0.4,0-0.7,0.3-0.7,0.6s0.3,0.6,0.7,0.6h7.6c0.4,0,0.7-0.3,0.7-0.6
		S33.2,42.5,32.8,42.5"/>
	<path class="st0" d="M39.1,50.6c0-0.3-0.3-0.6-0.7-0.6l0,0H19.5l0,0c-0.4,0-0.7,0.3-0.7,0.6s0.3,0.6,0.7,0.6h18.9
		C38.8,51.2,39.1,51,39.1,50.6"/>
	<path class="st0" d="M33.4,11.7c-2.2-1.5-4.6-2.5-7.2-2.9c-0.1,0-0.1,0.1-0.2,0.2c0.1,1,0.2,1.9,0.3,2.8c-0.4,0.1-0.8-0.1-1.1-0.2
		c-0.1-0.1-0.3-0.1-0.5-0.1s-0.2,0.2-0.2,0.4c0.1,1.1,1.3,2,2.3,2.2c-0.1,0.1-0.5,0.1-1-0.1c-0.8-0.4-1.6,0.5-1.8,0.7
		c-1.5,1.2-2.2,2.8-3.5,4.2c-0.2,0.2-0.3,0.3-0.5,0.5s-0.4,0.4-0.5,0.6c-0.7,0.8-1.5,1.6-1.8,2.6c0,0.2,0,0.4,0,0.7
		c0.1,0.5,0.5,0.9,0.9,1.3c0.2,0.2,0.5-0.2,0.7,0.2c0,0,0.2,0.2,0.6,0c1.2-0.6,2.3-1.4,3.7-1.5c1.9,0.1,3.7-0.7,4.5-2.5h0.1
		c-0.1,1.1-1.1,1.9-2.1,2.4c-0.7,0.3-0.8,0.8-0.8,0.8c-1,2.3-1.6,4-3.1,6.2c-0.4,0.7-0.3,1.5,0,2.2c0.4,1,0.7,2,1.3,2.9h10.9
		c1.5-2.3,2.6-4.8,3.4-7.5C39.5,22.2,38.6,15.4,33.4,11.7 M24.9,17.7c0,0-0.3,0.7-1.1,0.5c-0.8-0.2-0.3-1.1-0.3-1.1s0.5,0,1.4,0.4
		h0.2c0,0-0.3-0.8-1.6-0.7c0,0-0.4-0.3-0.2-0.8c0,0,1,0.3,1.3,0.5c0.3,0.1,0.9,0.5,1.1,1.2H24.9z M26.1,35c-0.1,0.2-0.7,0-1-0.2
		s-0.8-0.4-1.3-1.1C23.3,33,23.2,32.5,23,32c0,0,0-0.1,0-0.2c0.1,0,0.1,0,0.1,0.1s0.5,0.9,1.1,1.3c0,0,0.6,0.6,1.2,1
		C26,34.7,26.2,34.9,26.1,35 M37.9,23.8l-2.2,0.3c0,0,0,0.7-0.1,0.9l2.2,0.3v0.3l-2.2,0.1l-0.1,0.9l2,0.7v0.2l-2.2-0.1L35,28.3
		l2,0.6l-0.1,0.2L34.8,29l-0.2,0.6l1.8,0.9l-0.1,0.2l-1.9-0.4c0,0-0.1,0.5-0.2,0.7l1.5,0.9l-0.1,0.2l-1.7-0.5c0,0-0.2,0.5-0.3,0.6
		l1.4,1l-0.1,0.2l-1.5-0.6L33,33.4l1.1,1L34,34.5L32.6,34l-0.4,0.6l0.9,0.8L33,35.5l-1-0.4l-0.4,0.5H31c0,0,3.5-4.2,3.9-11.1
		c0,0,0.7-6.2-4-9.9c0,0-1-0.8-1.6-1.1c0,0-0.3-0.1-0.5-0.4c-0.2-0.3-1-0.9-2.3-0.9l0.7-2.4l0.3,0.1l-0.1,2c0,0,0.6,0.1,0.8,0.2
		l0.8-1.8l0.3,0.1l-0.5,1.9l0.7,0.4l1.1-1.8l0.3,0.1l-0.8,2l0.6,0.4l1.5-1.7l0.2,0.2L31.3,14l0.6,0.6l1.9-1.6l0.2,0.2l-1.6,2
		l0.5,0.6L35,14l0.2,0.2L33.3,16c0,0,0.4,0.5,0.6,0.8l2.4-1l0.1,0.2l-2.2,1.4c0,0,0.3,0.5,0.5,0.9l2.5-0.6l0.1,0.2l-2.3,1
		c0,0,0.3,0.7,0.4,1.1l2.4-0.3V20l-2.2,0.7c0,0,0.1,0.2,0.2,1l2.2-0.1v0.3l-2.2,0.5c0,0,0,0.7,0,1l2.2,0.2L37.9,23.8z"/>
	<polygon class="st0" points="90,25.1 90,35.1 96,35.1 96,33.9 91.4,33.9 91.4,25.1 	"/>
	<path class="st0" d="M99.7,30c0,2.7,2.1,5.2,5.4,5.2c3.4,0,5.4-2.4,5.4-5.2s-2.1-5.2-5.4-5.2C101.9,24.8,99.7,27.2,99.7,30
		 M101.2,30c0-2.2,1.7-3.8,3.9-3.8c2.2,0,3.9,1.6,3.9,3.8s-1.7,3.8-3.9,3.8C102.9,33.8,101.2,32.2,101.2,30"/>
	<path class="st0" d="M115.3,25.1v10h1.4v-4.4h0.6c0.7,0,1.3,0.2,2.7,2.3l1.3,2.1h1.7c-0.7-1-0.9-1.3-1.4-2
		c-0.8-1.2-1.3-2.2-2.2-2.8c1.1-0.4,1.7-1.3,1.7-2.5c0-1.7-1.3-2.8-3.3-2.8h-2.5V25.1z M116.7,26.3h0.9c1.4,0,2,0.6,2,1.5
		c0,0.8-0.4,1.6-2,1.6h-0.9V26.3z"/>
	<path class="st0" d="M127.1,35.2h3.9c3.3,0,5.3-2.4,5.3-5c0-2.4-1.6-5-5.3-5h-3.9V35.2z M128.5,26.4h2.2c2.8,0,4.1,1.7,4.1,3.7
		c0,1.2-0.8,3.7-4,3.7h-2.3V26.4z"/>
	<path class="st0" d="M148.8,27.3l1.6,3.6h-3.1L148.8,27.3z M148.3,25.1L144,35.2h1.5l1.3-3h4.3l1.3,3h1.5l-4.5-10.1H148.3z"/>
	<path class="st0" d="M159.3,30.7h1.7c1.5,0,2.2,0.6,2.2,1.6c0,0.8-0.5,1.6-2.1,1.6h-1.8L159.3,30.7L159.3,30.7z M157.9,35.2h3.4
		c2.5,0,3.4-1.4,3.4-2.7c0-1.4-0.9-2.3-2.4-2.6l0,0c1-0.4,1.5-1.1,1.5-2.1c0-1.3-0.9-2.6-3.1-2.6h-2.9v10H157.9z M159.3,26.4h1.3
		c1.3,0,1.7,0.6,1.7,1.4c0,1.1-0.7,1.6-2.1,1.6h-1v-3H159.3z"/>
	<path class="st0" d="M170.6,30.7h1.7c1.5,0,2.2,0.6,2.2,1.6c0,0.8-0.5,1.6-2.1,1.6h-1.8L170.6,30.7L170.6,30.7z M169.1,35.2h3.4
		c2.5,0,3.4-1.4,3.4-2.7c0-1.4-0.9-2.3-2.4-2.6l0,0c1-0.4,1.5-1.1,1.5-2.1c0-1.3-0.9-2.6-3.1-2.6H169v10H169.1z M170.6,26.4h1.3
		c1.3,0,1.8,0.6,1.8,1.4c0,1.1-0.7,1.6-2.1,1.6h-1V26.4z"/>
	<polygon class="st0" points="180.3,25.1 180.3,35.1 186.2,35.1 186.2,33.9 181.8,33.9 181.8,30.7 185.9,30.7 185.9,29.4 
		181.8,29.4 181.8,26.4 186,26.4 186,25.1 	"/>
	<polygon class="st0" points="189.8,25.1 189.8,26.4 193.3,26.4 193.3,35.1 194.7,35.1 194.7,26.4 198.2,26.4 198.2,25.1 	"/>
	<polygon class="st0" points="201.6,25.1 201.6,26.4 205.1,26.4 205.1,35.1 206.5,35.1 206.5,26.4 210,26.4 210,25.1 	"/>
</g>
<path class="st0" d="M212,26.2v-0.4h0.4c0.1,0,0.2,0.1,0.2,0.2c0,0.1-0.1,0.2-0.3,0.2H212 M211.8,27h0.2v-0.6h0.1
	c0.2,0,0.2,0.1,0.4,0.4l0.1,0.2h0.3l-0.2-0.3c-0.1-0.2-0.2-0.3-0.3-0.3l0,0c0.2,0,0.4-0.2,0.4-0.4c0-0.1-0.1-0.4-0.5-0.4h-0.6V27
	H211.8z M213.4,26.3c0,0.6-0.5,1.1-1.1,1.1c-0.5-0.1-1-0.5-1-1.1s0.5-1.1,1.1-1.1C213,25.2,213.4,25.7,213.4,26.3 M213.6,26.3
	c0-0.7-0.6-1.3-1.3-1.3s-1.3,0.6-1.3,1.3s0.6,1.3,1.3,1.3C213.1,27.5,213.6,27,213.6,26.3"/>
</svg>
