<?xml version="1.0" encoding="iso-8859-1"?>
<!-- Generator: Adobe Illustrator 19.0.0, SVG Export Plug-In . SVG Version: 6.00 Build 0)  -->
<svg version="1.1" id="Capa_1" xmlns="http://www.w3.org/2000/svg" xmlns:xlink="http://www.w3.org/1999/xlink" x="0px" y="0px"
	 viewBox="0 0 512 512" style="enable-background:new 0 0 512 512;" xml:space="preserve">
<path style="fill:#5458EA;" d="M30,256c0-50.931,16.535-99.009,47.816-139.038c5.101-6.527,3.945-15.954-2.583-21.056
	c-6.527-5.1-15.954-3.944-21.055,2.583C18.735,143.844,0,198.311,0,256s18.735,112.156,54.179,157.511
	c5.074,6.495,14.497,7.708,21.055,2.583c6.527-5.102,7.684-14.528,2.583-21.056C46.535,355.009,30,306.931,30,256z"/>
<path style="fill:#72A3FC;" d="M256,51C142.962,51,51,142.963,51,256s91.962,205,205,205s205-91.963,205-205S369.038,51,256,51z"/>
<path style="fill:#2892FC;" d="M256,51v410c113.038,0,205-91.963,205-205S369.038,51,256,51z"/>
<g>
	<path style="fill:#F9F9F9;" d="M231.251,316.104l-14.142,14.142c-9.747,9.747-25.607,9.748-35.355,0
		c-9.748-9.747-9.748-25.608,0-35.355l42.427-42.427c9.747-9.745,25.608-9.748,35.355,0.001c5.858,5.857,15.356,5.856,21.213-0.001
		c5.858-5.858,5.857-15.355,0-21.214c-21.445-21.441-56.337-21.441-77.781,0.001l-42.427,42.427
		c-21.443,21.444-21.443,56.337,0,77.781c21.492,21.493,56.285,21.498,77.782,0l14.142-14.142c5.858-5.857,5.858-15.354,0-21.213
		S237.11,310.246,231.251,316.104z"/>
	<path style="fill:#F9F9F9;" d="M273.678,160.541l-14.142,14.142c-5.858,5.857-5.858,15.354,0,21.213s15.355,5.858,21.213,0
		l14.142-14.142c9.748-9.746,25.608-9.747,35.355,0s9.748,25.608,0,35.355l-42.427,42.427c-9.747,9.746-25.608,9.747-35.355-0.001
		c-5.858-5.857-15.356-5.856-21.213,0.001c-5.858,5.858-5.857,15.355,0,21.214c21.447,21.443,56.336,21.443,77.781-0.001
		l42.427-42.427c21.443-21.444,21.443-56.337,0-77.781C329.967,139.048,295.175,139.043,273.678,160.541z"/>
</g>
<path style="fill:#394BF6;" d="M457.821,98.489c-5.101-6.528-14.528-7.684-21.055-2.583c-6.527,5.102-7.684,14.528-2.583,21.056
	C465.465,156.991,482,205.069,482,256s-16.535,99.009-47.816,139.038c-5.101,6.527-3.945,15.954,2.583,21.056
	c6.5,5.079,15.931,3.974,21.055-2.583C493.265,368.156,512,313.689,512,256S493.265,143.844,457.821,98.489z"/>
<g>
	<path style="fill:#DFE4EA;" d="M256,321.754v9.914C257.121,328.462,257.121,324.96,256,321.754z"/>
	<path style="fill:#DFE4EA;" d="M280.749,231.25c-7.1-7.099-15.677-11.832-24.749-14.23v32.512c1.244,0.854,2.431,1.828,3.536,2.933
		c5.858,5.857,15.356,5.856,21.213-0.001C286.607,246.605,286.606,237.108,280.749,231.25z"/>
	<path style="fill:#DFE4EA;" d="M256,190.246v-9.914C254.879,183.538,254.879,187.04,256,190.246z"/>
	<path style="fill:#DFE4EA;" d="M351.459,160.541c-21.492-21.493-56.285-21.498-77.782,0l-14.142,14.142
		c-1.648,1.647-2.815,3.588-3.536,5.649v9.914c0.721,2.062,1.888,4.002,3.535,5.65c5.857,5.858,15.355,5.858,21.213,0l14.142-14.142
		c9.748-9.746,25.608-9.747,35.355,0s9.748,25.608,0,35.355l-42.427,42.427c-8.642,8.641-22.088,9.615-31.82,2.931v32.513
		c18.329,4.846,38.687,0.113,53.033-14.232l42.427-42.427C372.903,216.878,372.903,181.985,351.459,160.541z"/>
</g>
<g>
</g>
<g>
</g>
<g>
</g>
<g>
</g>
<g>
</g>
<g>
</g>
<g>
</g>
<g>
</g>
<g>
</g>
<g>
</g>
<g>
</g>
<g>
</g>
<g>
</g>
<g>
</g>
<g>
</g>
</svg>
