<svg enable-background="new 0 0 24 24" height="512" viewBox="0 0 24 24" width="512" xmlns="http://www.w3.org/2000/svg"><path d="m15.7 18.15-.03.08-5.67 5.6 2.51-6.83z" fill="#1e88e5"/><path d="m23.854.306c-.219-.299-.623-.393-.952-.221l-22.5 11.75c-.261.137-.418.413-.402.707.017.294.204.551.479.657l7.75 3c.088.034.18.051.271.051.195 0 .387-.076.53-.22l14.75-14.75c.262-.261.294-.676.074-.974z" fill="#64b5f6"/><path d="m23.498.042c-.324-.111-.684.008-.874.295l-10.74 16.25c-.127.191-.159.431-.086.649s.241.392.458.469l8.989 3.25c.083.03.169.045.255.045.141 0 .281-.04.403-.117.196-.125.323-.334.344-.565l1.75-19.5c.031-.343-.175-.663-.499-.776z" fill="#64b5f6"/><path d="m23.25.75-10.995 16.955-2.255 6.125-2-7.83z" fill="#2196f3"/></svg>