<svg id="Layer_1" enable-background="new 0 0 480.001 480.001" height="512" viewBox="0 0 480.001 480.001" width="512" xmlns="http://www.w3.org/2000/svg"><path d="m419.96 392.65c.062.747.04-1.468.04 21.35 0 17.67-14.33 32-32 32h-348c-17.67 0-32-14.33-32-32v-348c0-17.67 14.33-32 32-32h348c17.67 0 32 14.33 32 32 0 334.011.06 326.65-.04 326.65z" fill="#b9dcff"/><path d="m440.424 251.644 5.43 20.064c.513 1.895 1.705 3.536 3.349 4.609l17.401 11.36c3.15 2.057 4.442 6.031 3.103 9.547l-7.401 19.429c-.699 1.834-.699 3.861 0 5.695l7.401 19.429c1.339 3.516.048 7.49-3.103 9.547l-17.401 11.36c-1.644 1.073-2.836 2.714-3.349 4.609l-5.43 20.067c-.983 3.631-4.369 6.087-8.126 5.9-13.378-.664-11.41-.566-20.747-1.036-1.962-.099-3.896.528-5.426 1.76l-16.185 13.042c-2.93 2.361-7.109 2.361-10.039 0l-16.187-13.043c-1.529-1.232-3.457-1.859-5.418-1.761l-20.768 1.037c-3.758.188-7.138-2.269-8.121-5.9l-5.43-20.066c-.513-1.895-1.705-3.536-3.349-4.609l-17.4-11.36c-3.15-2.057-4.442-6.031-3.103-9.547l7.401-19.429c.699-1.834.699-3.861 0-5.695l-7.401-19.429c-1.339-3.516-.048-7.49 3.103-9.547l17.4-11.36c1.644-1.073 2.836-2.714 3.349-4.609l5.43-20.066c.983-3.632 4.363-6.088 8.121-5.9l20.768 1.037c1.961.098 3.889-.529 5.418-1.761l16.187-13.043c2.93-2.361 7.109-2.361 10.039 0l16.188 13.044c1.528 1.231 3.459 1.858 5.419 1.761 9.306-.461 7.263-.359 20.748-1.036 3.758-.189 7.146 2.267 8.129 5.9z" fill="#e8f3ff"/><path d="m420.02 392.65-.02.481-.04-.481z" fill="#ffaa64"/><path d="m469.71 341.78c1.33 3.51.04 7.49-3.11 9.54l-17.4 11.36c-1.64 1.08-2.83 2.72-3.35 4.61l-5.43 20.07c-.98 3.63-4.37 6.09-8.12 5.9-13.38-.66-11.41-.57-20.75-1.04-1.96-.1-3.9.53-5.43 1.76l-16.18 13.05c-2.93 2.36-7.11 2.36-10.04 0l-16.19-13.05c-1.53-1.23-3.45-1.86-5.41-1.76l-20.77 1.04c-3.76.19-7.14-2.27-8.12-5.9l-.888-3.279c-1.59-5.872 2.486-11.742 8.541-12.334 60.789-5.95 94.223-60.32 85.829-114.712-.887-5.747 3.398-10.995 9.206-11.285 4.239-.211 7.4 2.476 8.321 5.89l5.43 20.07c.52 1.89 1.71 3.53 3.35 4.61l17.4 11.36c3.15 2.05 4.44 6.03 3.11 9.54l-7.41 19.43c-.69 1.84-.69 3.86 0 5.7z" fill="#d1e7ff"/><path d="m420 66.001c0 15.464-12.536 28-28 28h-174c-82.843 0-150 67.157-150 150v174c0 15.464-12.536 28-28 28-17.673 0-32-14.327-32-32v-348c0-17.673 14.327-32 32-32h348c17.673 0 32 14.326 32 32z" fill="#d1e7ff"/><path d="m277.34 34.001v98.36c0 12.07-12.85 19.79-23.51 14.13l-31.75-16.87c-4.7-2.49-10.32-2.49-15.02 0l-31.75 16.87c-10.66 5.66-23.51-2.06-23.51-14.13v-98.36z" fill="#e8f3ff"/><path d="m277.34 94.001v38.36c0 12.07-12.85 19.79-23.51 14.13l-31.75-16.87c-4.7-2.49-10.32-2.49-15.02 0l-31.75 16.87c-10.66 5.66-23.51-2.06-23.51-14.13v-23c19.96-9.83 42.44-15.36 66.2-15.36z" fill="#d1e7ff"/><path d="m421.438 292.685c3.124 3.124 3.124 8.189 0 11.313l-42.158 42.159c-3.125 3.124-8.189 3.125-11.314 0l-19.574-19.574c-3.124-3.124-3.124-8.189 0-11.313 3.125-3.124 8.189-3.125 11.314 0l13.917 13.917 36.501-36.502c3.125-3.124 8.189-3.124 11.314 0zm-293.604 35.753h-46.792c-4.418 0-8 3.582-8 8s3.582 8 8 8h46.792c4.418 0 8-3.582 8-8s-3.582-8-8-8zm0 45.651h-46.792c-4.418 0-8 3.582-8 8s3.582 8 8 8h46.792c4.418 0 8-3.582 8-8s-3.582-8-8-8zm244.232 63.912h-332.066c-13.233 0-24-10.766-24-24v-348c0-13.234 10.767-24 24-24h103.801v90.363c0 18.121 19.289 29.678 35.259 21.195l31.759-16.871c2.351-1.25 5.155-1.249 7.506 0l31.757 16.871c15.97 8.484 35.26-3.077 35.26-21.195v-60.158c0-4.418-3.582-8-8-8s-8 3.582-8 8v60.158c0 6.037-6.424 9.896-11.754 7.065l-31.756-16.871c-7.051-3.745-15.469-3.746-22.52 0l-31.758 16.871c-5.331 2.833-11.753-1.032-11.753-7.065v-90.363h228.199c13.233 0 24 10.766 24 24v122.942c0 4.418 3.582 8 8 8s8-3.582 8-8v-122.942c0-22.056-17.944-40-40-40h-348c-22.056 0-40 17.944-40 40v348c0 22.056 17.944 40 40 40h332.066c4.418 0 8-3.582 8-8s-3.582-8-8-8zm97.474-117.851 9.914-25.438c1.366-3.505.105-7.489-3.029-9.569l-22.745-15.102-6.931-26.407c-.955-3.638-4.265-6.123-8.076-5.961l-27.276 1.151-21.129-17.29c-2.912-2.383-7.092-2.415-10.037-.077l-21.392 16.965-27.257-1.568c-3.744-.206-7.153 2.214-8.165 5.838l-7.334 26.298-22.973 14.752c-3.166 2.033-4.487 5.997-3.175 9.522l9.524 25.586-9.914 25.438c-1.366 3.505-.105 7.489 3.029 9.569l22.745 15.102 6.931 26.407c.956 3.638 4.269 6.126 8.076 5.961l27.276-1.151 21.129 17.29c2.91 2.381 7.09 2.415 10.037.077l21.392-16.965 27.257 1.568c4.42.248 8.191-3.117 8.445-7.527.254-4.411-3.116-8.192-7.527-8.446l-30.299-1.743c-1.964-.109-3.893.5-5.43 1.719l-18.73 14.854-18.5-15.139c-1.521-1.243-3.431-1.888-5.404-1.801l-23.882 1.008-6.068-23.122c-.499-1.898-1.678-3.548-3.313-4.633l-19.915-13.223 8.681-22.273c.713-1.829.729-3.856.043-5.696l-8.339-22.403 20.114-12.917c1.652-1.061 2.856-2.691 3.384-4.583l6.421-23.026 23.865 1.373c1.966.113 3.893-.5 5.43-1.719l18.73-14.854 18.5 15.139c1.521 1.243 3.432 1.885 5.404 1.801l23.882-1.008 6.068 23.122c.499 1.898 1.678 3.548 3.313 4.633l19.915 13.223-8.681 22.273c-.713 1.829-.729 3.856-.043 5.696l8.388 22.534-10.336 6.954c-3.666 2.466-4.638 7.438-2.172 11.104 2.468 3.666 7.438 4.638 11.104 2.172l15.567-10.473c3.068-2.064 4.321-5.963 3.031-9.429z" fill="#2e58ff"/></svg>