<svg height="512" viewBox="0 0 128 128" width="512" xmlns="http://www.w3.org/2000/svg"><g><circle cx="64" cy="64" fill="#3ea2e5" r="37.539"/><g fill="#6d7a84"><path d="m14.4 53.523a1.749 1.749 0 0 0 2.118-1.28 48.692 48.692 0 0 1 43.96-37.016v5.167l7.044-7.044-7.044-7.044v5.422c-.04 0-.079-.006-.12 0a52.185 52.185 0 0 0 -47.234 39.68 1.75 1.75 0 0 0 1.276 2.115z"/><path d="m113.6 74.477a1.754 1.754 0 0 0 -2.118 1.28 48.692 48.692 0 0 1 -43.956 37.016v-5.167l-7.044 7.044 7.044 7.044v-5.415h.12a52.185 52.185 0 0 0 47.23-39.679 1.75 1.75 0 0 0 -1.276-2.123z"/><path d="m75.756 16.522a48.693 48.693 0 0 1 37.017 43.956h-5.167l7.044 7.044 7.044-7.044h-5.423c0-.04.007-.08 0-.121a52.182 52.182 0 0 0 -39.671-47.233 1.75 1.75 0 0 0 -.839 3.4z"/><path d="m52.244 111.478a48.693 48.693 0 0 1 -37.017-43.956h5.167l-7.044-7.044-7.044 7.044h5.423c0 .04-.007.08 0 .121a52.182 52.182 0 0 0 39.68 47.233 1.8 1.8 0 0 0 .421.051 1.75 1.75 0 0 0 .418-3.449z"/></g><path d="m100.79 56.48c-3.34-4.81-9.83-8.73-18.19-11.08-2.35-8.36-6.27-14.85-11.08-18.19a38.075 38.075 0 0 0 -15.04 0c-4.81 3.34-8.73 9.83-11.08 18.19-8.36 2.35-14.85 6.27-18.19 11.08a38.075 38.075 0 0 0 0 15.04c3.34 4.81 9.83 8.73 18.19 11.08 2.35 8.36 6.27 14.85 11.08 18.19a38.075 38.075 0 0 0 15.04 0c4.81-3.34 8.73-9.83 11.08-18.19 8.36-2.35 14.85-6.27 18.19-11.08a38.075 38.075 0 0 0 0-15.04zm-72.39 9.27h14.59a70.419 70.419 0 0 0 1.43 12.82c-8.73-2.86-14.9-7.53-16.02-12.82zm14.59-3.5h-14.59c1.12-5.29 7.29-9.96 16.02-12.82a70.419 70.419 0 0 0 -1.43 12.82zm19.26 37.35c-5.29-1.12-9.96-7.29-12.83-16.02a70.632 70.632 0 0 0 12.83 1.43zm0-18.09a65.346 65.346 0 0 1 -13.94-1.82 65.346 65.346 0 0 1 -1.82-13.94h15.76zm0-19.26h-15.76a65.346 65.346 0 0 1 1.82-13.94 65.346 65.346 0 0 1 13.94-1.82zm0-19.26a70.632 70.632 0 0 0 -12.83 1.43c2.87-8.73 7.54-14.9 12.83-16.02zm3.5-14.59c5.29 1.12 9.96 7.29 12.83 16.02a70.632 70.632 0 0 0 -12.83-1.43zm0 71.2v-14.59a70.632 70.632 0 0 0 12.83-1.43c-2.87 8.73-7.54 14.9-12.83 16.02zm13.94-19.91a65.346 65.346 0 0 1 -13.94 1.82v-15.76h15.76a65.346 65.346 0 0 1 -1.82 13.94zm-13.94-17.44v-15.76a65.346 65.346 0 0 1 13.94 1.82 65.346 65.346 0 0 1 1.82 13.94zm17.83 16.32a70.419 70.419 0 0 0 1.43-12.82h14.59c-1.12 5.29-7.29 9.96-16.02 12.82zm1.43-16.32a70.419 70.419 0 0 0 -1.43-12.82c8.73 2.86 14.9 7.53 16.02 12.82z" fill="#1892d6"/></g></svg>