<svg width="72" height="60" viewBox="0 0 72 60" fill="none" xmlns="http://www.w3.org/2000/svg">
<path d="M4.76152 2.52661H44.3701C45.6156 2.52661 46.6121 3.52305 46.6121 4.7686V57.6867C46.6121 58.9323 45.6156 59.9287 44.3701 59.9287C44.3701 59.9287 13.0178 59.9999 4.58359 59.9643C3.4448 59.9643 2.51953 59.0391 2.51953 57.9003V4.7686C2.51953 3.55864 3.51597 2.52661 4.76152 2.52661ZM4.79711 3.34512C4.01419 3.34512 3.37362 3.98569 3.37362 4.7686V57.6512C3.37362 58.4341 4.01419 59.0746 4.79711 59.0746H44.4057C45.1886 59.0746 45.8291 58.4341 45.8291 57.6512V14.1636L45.7224 4.7686C45.7224 3.98569 45.0462 3.30953 44.2633 3.30953L4.79711 3.34512Z" fill="#22417D"/>
<path d="M0.526656 4.83986C0.241958 4.80427 0.0996094 4.62633 0.0996094 4.37722C0.277545 1.92171 2.3416 0 4.79712 0H10.9181C11.1316 0 11.3452 0.177936 11.3452 0.427046C11.3452 0.676157 11.1316 0.818505 10.9181 0.818505H4.79712C2.76865 0.854092 1.09605 2.41993 0.918115 4.4484C0.918115 4.66192 0.740179 4.83986 0.526656 4.83986Z" fill="#22417D"/>
<path d="M15.7579 0.818505H13.5159C13.3024 0.818505 13.0889 0.640569 13.0889 0.391459C13.0889 0.142349 13.2668 0 13.5159 0H15.7579C15.9714 0 16.185 0.177936 16.185 0.427046C16.185 0.676157 16.007 0.818505 15.7579 0.818505Z" fill="#22417D"/>
<path d="M48.7474 46.0498C48.5338 46.0498 48.3203 45.8718 48.3203 45.6227V43.4163C48.3203 43.2028 48.4982 42.9893 48.7474 42.9893C48.9965 42.9893 49.1744 43.1672 49.1744 43.4163V45.6227C49.1744 45.8362 48.9609 46.0498 48.7474 46.0498Z" fill="#22417D"/>
<path d="M48.7474 57.1886C48.5338 57.1886 48.3203 57.0107 48.3203 56.7615V47.6868C48.3203 47.4733 48.4982 47.2598 48.7474 47.2598C48.9965 47.2598 49.1744 47.4377 49.1744 47.6868V56.7971C49.1744 57.0107 48.9609 57.1886 48.7474 57.1886Z" fill="#22417D"/>
<path d="M4.79751 3.30957C4.01459 3.30957 3.37402 3.95014 3.37402 4.73306V57.6512C3.37402 58.4341 4.01459 59.0747 4.79751 59.0747H44.4061C45.189 59.0747 45.8295 58.4341 45.8295 57.6512V14.1637L45.7228 4.76864C45.7228 3.98573 45.0466 3.30957 44.2637 3.30957H4.79751Z" fill="#EBECE9"/>
<path d="M45.7933 4.76864C45.7933 3.98573 44.6901 3.30957 43.3734 3.30957H40.8467C42.1634 3.30957 43.2666 3.95014 43.2666 4.76864L43.4445 14.1637V57.6512C43.4445 58.4341 42.4125 59.0747 41.0958 59.0747H43.6225C44.9036 59.0747 45.9712 58.4341 45.9712 57.6512V14.1637L45.7933 4.76864Z" fill="#C1C1C1"/>
<path d="M58.498 32.3132L60.5264 34.4485C61.167 35.089 61.167 36.1211 60.5264 36.7616L55.3663 41.9218C54.7257 42.5623 53.6937 42.5623 53.0531 41.9218L51.167 39.9645C51.167 39.9645 54.4766 37.8648 55.4375 36.904C56.3627 35.9787 58.498 32.3132 58.498 32.3132Z" fill="#C7CFD6"/>
<path d="M54.2269 42.7045C53.6931 42.7045 53.1949 42.491 52.839 42.1351L50.8105 40.1066C50.7038 39.9643 50.7038 39.7863 50.8105 39.644C50.9529 39.5372 51.1308 39.5372 51.2732 39.644L53.3016 41.6724C53.8354 42.1707 54.6184 42.1707 55.1522 41.6724L60.3123 36.5123C60.8105 36.0141 60.8105 35.16 60.3123 34.6618L57.9991 32.3486C57.8568 32.2418 57.8212 32.0283 57.9636 31.886C58.0703 31.7436 58.2838 31.708 58.4262 31.8504L58.4618 31.886L60.7749 34.1991C61.5223 34.9465 61.5223 36.192 60.7749 36.9749L55.6148 42.1351C55.2589 42.491 54.7607 42.7045 54.2269 42.7045Z" fill="#22417D"/>
<path d="M43.4444 41.7437C52.7998 41.7437 60.3839 34.1597 60.3839 24.8042C60.3839 15.4488 52.7998 7.86475 43.4444 7.86475C34.089 7.86475 26.5049 15.4488 26.5049 24.8042C26.5049 34.1597 34.089 41.7437 43.4444 41.7437Z" fill="#EBECE9"/>
<path d="M43.4444 42.064C33.907 42.064 26.1846 34.3416 26.1846 24.8042C26.1846 15.2669 33.907 7.54443 43.4444 7.54443C52.9817 7.54443 60.7041 15.2669 60.7041 24.8042C60.7041 34.3416 52.9817 42.064 43.4444 42.064ZM43.4444 8.185C34.2629 8.185 26.8251 15.6227 26.8251 24.8042C26.8251 33.9857 34.2629 41.4234 43.4444 41.4234C52.6259 41.4234 60.0636 33.9857 60.0636 24.8042C60.028 15.6227 52.6259 8.22059 43.4444 8.185Z" fill="#323C6B"/>
<path d="M43.4446 7.86475C38.9606 7.86475 34.6546 9.64411 31.4873 12.8114C39.1741 7.50887 49.7435 9.43058 55.046 17.1174C59.7079 23.8434 58.8539 32.9537 53.0531 38.7544C60.74 33.4519 62.6973 22.9181 57.3948 15.1957C54.2275 10.605 48.9962 7.86475 43.4446 7.86475Z" fill="#C1C1C1"/>
<path d="M55.8994 41.4235L65.4724 50.9964C66.6112 52.1352 68.4617 52.1352 69.6361 50.9964C70.7749 49.8576 70.7749 48.0071 69.6361 46.8327L60.0631 37.2598L55.8994 41.4235Z" fill="#9FEFDE"/>
<path d="M67.5368 52.1708C66.6827 52.1708 65.8286 51.8149 65.2237 51.2099L55.6507 41.637C55.5084 41.4946 55.5084 41.3167 55.6507 41.1743L59.8144 37.0462C59.9568 36.9039 60.1347 36.9039 60.277 37.0462L69.85 46.6192C71.1311 47.9003 71.1311 49.9644 69.85 51.2099C69.245 51.8149 68.3909 52.1708 67.5368 52.1708ZM56.3625 41.4234L65.7219 50.7829C66.7183 51.8149 68.3909 51.8149 69.4229 50.8185C70.455 49.822 70.455 48.1494 69.4585 47.1174L69.4229 47.0818L60.0279 37.7224L56.3625 41.4234Z" fill="#22417D"/>
<path d="M66.1133 49.1814C65.9354 49.3593 65.6863 49.3593 65.5439 49.1814L62.6969 46.3344C62.519 46.1921 62.519 45.9074 62.6969 45.765C62.8749 45.5871 63.124 45.5871 63.3019 45.765L66.1489 48.612C66.2912 48.7544 66.2912 49.0035 66.1133 49.1814Z" fill="white"/>
<path d="M62.2697 44.7331C62.4476 44.9111 62.4476 45.1602 62.2697 45.3381C62.1985 45.4093 62.0917 45.4449 61.985 45.4449C61.8782 45.4449 61.7714 45.4093 61.7003 45.3381L60.7394 44.3773C60.5971 44.1993 60.5971 43.9502 60.775 43.7723C60.9529 43.6299 61.202 43.6299 61.3444 43.7723L62.2697 44.7331Z" fill="white"/>
<path d="M43.4444 42.064C33.907 42.064 26.1846 34.3416 26.1846 24.8042C26.1846 15.2669 33.907 7.54443 43.4444 7.54443C52.9817 7.54443 60.7041 15.2669 60.7041 24.8042C60.7041 34.3416 52.9817 42.064 43.4444 42.064ZM43.4444 8.185C34.2629 8.185 26.8251 15.6227 26.8251 24.8042C26.8251 33.9857 34.2629 41.4234 43.4444 41.4234C52.6259 41.4234 60.0636 33.9857 60.0636 24.8042C60.028 15.6227 52.6259 8.22059 43.4444 8.185Z" fill="#22417D"/>
<path d="M62.9108 51.4947C62.8396 51.4947 62.7329 51.4591 62.6973 51.3879L61.5941 50.2847C61.4517 50.1424 61.4517 49.9644 61.5941 49.8221C61.7364 49.6797 61.9144 49.6797 62.0567 49.8221L63.1599 50.9253C63.3022 51.0676 63.3022 51.2456 63.1599 51.3879C63.0887 51.4591 63.0176 51.4947 62.9108 51.4947Z" fill="#22417D"/>
<path d="M67.5369 54.0926C66.149 54.0926 64.8323 53.5588 63.8714 52.5623C63.7291 52.4556 63.7291 52.242 63.8714 52.0997C63.9782 51.9573 64.1917 51.9573 64.334 52.0997C66.1134 53.879 68.996 53.879 70.7753 52.0997C70.8821 51.9573 71.0956 51.9573 71.238 52.0997C71.3803 52.242 71.3803 52.42 71.238 52.5623C70.2415 53.5588 68.9248 54.1282 67.5369 54.0926Z" fill="#22417D"/>
<path d="M55.4726 10.6406C55.4015 10.6406 55.3303 10.605 55.2591 10.5694C54.8321 10.2135 54.4406 9.89324 54.0847 9.64413C53.9424 9.53737 53.9068 9.35944 53.978 9.1815C54.0491 9.00357 54.2627 9.00357 54.4406 9.07474C54.4406 9.07474 54.4406 9.07474 54.4762 9.07474C54.8677 9.32385 55.2591 9.64413 55.7217 10.0356C55.8641 10.1424 55.8641 10.3559 55.7573 10.4982C55.6862 10.5694 55.5794 10.6406 55.4726 10.6406Z" fill="#22417D"/>
<path d="M61.807 20.7117C61.6646 20.7117 61.5223 20.6049 61.4867 20.4626C60.7038 17.2953 59.1023 14.3771 56.8603 11.9928C56.7536 11.8505 56.7536 11.6725 56.8603 11.5302C56.9671 11.3878 57.1806 11.4234 57.323 11.5302C59.6717 13.9857 61.3087 17.0106 62.1273 20.2846C62.1628 20.4626 62.0561 20.6405 61.8781 20.6761C61.8426 20.7117 61.807 20.7117 61.807 20.7117Z" fill="#22417D"/>
<path d="M39.2099 37.2953C39.1387 37.2953 39.1031 37.2953 39.0675 37.2597C38.4982 37.0106 37.9643 36.7259 37.4305 36.4056C37.2526 36.2988 37.1814 36.0497 37.3238 35.8718C37.4305 35.6938 37.6441 35.6583 37.822 35.7294C38.3202 36.0141 38.854 36.2988 39.3878 36.5479C39.6014 36.6191 39.6725 36.8682 39.6014 37.0462C39.5302 37.1885 39.3878 37.2953 39.2099 37.2953Z" fill="white"/>
<path d="M36.3274 35.5872C36.2562 35.5872 36.1494 35.5516 36.0783 35.516C34.0142 33.9146 32.4128 31.815 31.4163 29.395C31.3452 29.1815 31.4163 28.968 31.6299 28.8968C31.8434 28.8256 32.0569 28.8968 32.1281 29.1103C33.0533 31.3879 34.5836 33.3808 36.5765 34.911C36.7544 35.0534 36.79 35.2669 36.6477 35.4449C36.5765 35.5516 36.4697 35.5872 36.3274 35.5872Z" fill="white"/>
<path d="M39.6369 47.4377H9.56572C9.31661 47.4377 9.13867 47.6157 9.13867 47.8292C9.13867 48.0427 9.31661 48.2207 9.56572 48.2207H39.6725C39.9216 48.2207 40.0995 48.0427 40.0995 47.8292C40.0995 47.6157 39.886 47.4377 39.6369 47.4377Z" fill="#22417D"/>
<path d="M29.9216 40.8186H9.56572C9.31661 40.8186 9.13867 40.9965 9.13867 41.2101C9.13867 41.4236 9.31661 41.6015 9.56572 41.6015H29.9216C30.1707 41.6015 30.3486 41.4236 30.3486 41.2101C30.3486 40.961 30.1707 40.8186 29.9216 40.8186Z" fill="#22417D"/>
<path d="M23.8718 34.1638H9.56572C9.31661 34.1638 9.13867 34.3418 9.13867 34.5553C9.13867 34.7688 9.31661 34.9467 9.56572 34.9467H23.8718C24.1209 34.9467 24.2988 34.7688 24.2988 34.5553C24.2988 34.3418 24.0853 34.1638 23.8718 34.1638Z" fill="#22417D"/>
<path d="M22.555 27.3311H9.56572C9.31661 27.3311 9.13867 27.509 9.13867 27.7225C9.13867 27.936 9.31661 28.114 9.56572 28.114H22.5906C22.8397 28.114 23.0177 27.936 23.0177 27.7225C23.0177 27.509 22.8041 27.3311 22.555 27.3311Z" fill="#22417D"/>
<path d="M22.8041 20.7117H9.56572C9.31661 20.7117 9.13867 20.8896 9.13867 21.1031C9.13867 21.3167 9.31661 21.4946 9.56572 21.4946H22.8041C23.0533 21.4946 23.2312 21.3167 23.2312 21.1031C23.2312 20.8896 23.0533 20.7117 22.8041 20.7117Z" fill="#22417D"/>
<path d="M25.2953 14.0569H9.56572C9.31661 14.0569 9.13867 14.2348 9.13867 14.4483C9.13867 14.6619 9.31661 14.8398 9.56572 14.8398H25.2953C25.5444 14.8398 25.7223 14.6619 25.7223 14.4483C25.7223 14.2348 25.5088 14.0569 25.2953 14.0569Z" fill="#22417D"/>
</svg>
