<?xml version="1.0" encoding="utf-8"?>
<!-- Generator: Adobe Illustrator 22.0.1, SVG Export Plug-In . SVG Version: 6.00 Build 0)  -->
<svg version="1.1" id="Ebene_4" xmlns="http://www.w3.org/2000/svg" xmlns:xlink="http://www.w3.org/1999/xlink" x="0px" y="0px"
	 viewBox="0 0 239.8559723 72.4642181" style="enable-background:new 0 0 239.8559723 72.4642181;" xml:space="preserve">
<style type="text/css">
	.st0{fill:#5F6062;}
	.st1{fill:#009DDC;}
	.st2{fill:#D8D9DA;}
</style>
<g>
	<path class="st0" d="M51.793499,25.8891888v3.1933002h8.4439011v17.5136986h3.8124962V29.082489h8.443306v-3.1933002H51.793499z"/>
	<path class="st0" d="M95.0044937,35.564888c0.6889038-0.9238014,1.0263062-1.9842987,1.0263062-3.1581993v-0.9862995
		c0-0.7578011-0.1499023-1.4805012-0.4560013-2.1494007c-0.2968979-0.6786995-0.7031021-1.2549-1.2221985-1.7607994
		c-0.5249023-0.4941006-1.1278992-0.8847008-1.8339996-1.1806011c-0.7065048-0.2940006-1.4502029-0.4345989-2.2422028-0.4345989
		H77.5356979v3.2265987h12.7406998c0.6513977,0,1.2075958,0.2236004,1.6763,0.6688995
		c0.4779968,0.4346008,0.7065964,0.9766006,0.7065964,1.6299019v0.9862995c0,0.6152992-0.2285995,1.1581993-0.7065964,1.5918007
		c-0.4687042,0.4452972-1.0249023,0.6641006-1.6763,0.6641006H77.3951035v11.8983994h3.3638v-8.6338005h8.1376953
		l2.8295975,8.6631012h3.5112l-2.8906021-9.0332031C93.4356003,37.1537895,94.3120956,36.4906883,95.0044937,35.564888z"/>
	<path class="st0" d="M118.4746933,25.8891888v14.3543987c0,0.8370018-0.2904968,1.5655022-0.8813934,2.1788025
		c-0.6000977,0.6034966-1.3169022,0.9081993-2.1606064,0.9081993h-8.1796951c-0.8159027,0-1.5253983-0.3047028-2.1313019-0.9081993
		c-0.5971985-0.6133003-0.9033966-1.3418007-0.9033966-2.1788025V25.8891888h-3.209404v14.3543987
		c0,0.8829002,0.1562042,1.7080994,0.4785004,2.4659004c0.3218002,0.7578011,0.7714996,1.4315987,1.3480988,2.0135994
		c0.5752029,0.597702,1.2314987,1.0469017,1.9893036,1.3789024c0.7372971,0.3242989,1.5531998,0.4824982,2.4281998,0.4824982
		h8.1796951c0.8437042,0,1.6606064-0.1581993,2.4355087-0.4824982c0.7797928-0.3320007,1.4438934-0.7812004,2.0126953-1.3789024
		c0.5610962-0.5820007,1.0093002-1.2557983,1.3467026-2.0135994c0.3280945-0.7578011,0.4921951-1.5830002,0.4921951-2.4659004
		V25.8891888H118.4746933z"/>
	<path class="st0" d="M130.3432922,31.4027882v3.2090015h2.206604c0.0839996,0.0058975,0.1620941,0.0136986,0.2436066,0.0136986
		h5.0668945v3.2557983h-7.5171051v3.2090034h0.0440063c0,0.6308975,0.2373047,1.1640968,0.7124023,1.6171989
		c0.4657898,0.4511986,1.0375977,0.6758003,1.6938019,0.6758003h11.1655884v3.2011986h-11.1655884
		c-0.8003082,0-1.5547028-0.1464996-2.2534027-0.4316978c-0.7031097-0.2871017-1.3182983-0.6777-1.8339996-1.1699028
		c-0.5218964-0.4979973-0.9345016-1.0751991-1.2363052-1.7471008c-0.2997971-0.6708984-0.4452972-1.3895988-0.4452972-2.152298
		v-9.6680012c0-0.7645988,0.1455002-1.4755993,0.4452972-2.1395988c0.3018036-0.6641006,0.7144089-1.2481003,1.2363052-1.7549
		c0.5157013-0.5067997,1.1308899-0.9013996,1.8339996-1.1942997c0.6987-0.2911015,1.4530945-0.4375,2.2534027-0.4375h11.1655884
		v3.2558002h-11.1655884c-0.6562042,0-1.2280121,0.2187996-1.6938019,0.6562996
		c-0.4750977,0.4384003-0.7124023,0.9706993-0.7124023,1.6014996H130.3432922z"/>
	<g>
		<g id="XMLID_1_">
			<g>
				<path class="st1" d="M167.0195923,44.7133865v1.9598999h-11.6195984c-0.8701019,0-1.7001953-0.160099-2.4701996-0.4696999
					c-0.7700958-0.3002968-1.4599915-0.7402-2.0298004-1.2803001c-0.5903931-0.5497971-1.050293-1.1996994-1.3701019-1.910099
					c-0.3398895-0.7598-0.5102997-1.5200005-0.5102997-2.339901v-8.7596989c0-0.8100986,0.1704102-1.6000996,0.5102997-2.3300991
					c0.319809-0.7201996,0.7797089-1.3598995,1.3701019-1.9199009c0.5596008-0.5401001,1.2397003-0.9701996,2.0200043-1.3002987
					c0.7597961-0.3198013,1.589798-0.4800014,2.4799957-0.4800014h11.6195984v2h-11.6195984
					c-0.5903931,0-1.1401978,0.1001015-1.660202,0.3101006c-0.5101929,0.2098999-0.9598999,0.5102005-1.339798,0.8701
					c-0.4003906,0.3598003-0.7001953,0.7798004-0.930191,1.2900009c-0.2201996,0.4799995-0.3301086,1-0.3301086,1.5600986v8.7596989
					c0,0.5601006,0.1099091,1.080101,0.3301086,1.5601006c0.2299957,0.5098,0.5399933,0.9302025,0.9198914,1.2900009
					c0.3901978,0.3599014,0.8500977,0.660202,1.3500977,0.8701019c0.5200043,0.2099991,1.0601044,0.3198967,1.660202,0.3198967
					H167.0195923z"/>
			</g>
			<g>
			</g>
		</g>
	</g>
	<g>
		<g>
			<path class="st1" d="M200.6421967,46.78759h-2.1054993V35.3051872h13.2480011
				c0.4843903,0,0.9257965-0.0820999,1.3067017-0.2441978c0.4160004-0.172802,0.7753906-0.4004021,1.0956879-0.6953011
				c0.3105011-0.2793007,0.5469055-0.610302,0.7266083-1.0136986c0.1717987-0.3789024,0.2597046-0.7919006,0.2597046-1.2304001
				v-1.0498009c0-0.4287014-0.0879059-0.8388996-0.2597046-1.2198009c-0.1777954-0.410099-0.4161072-0.7440987-0.7247009-1.0194988
				c-0.335907-0.2988014-0.6932983-0.5254002-1.0937042-0.6894016c-0.3964996-0.1738987-0.8339996-0.2617989-1.3105927-0.2617989
				h-12.902298v-1.9745998h12.902298c0.7324982,0,1.4453888,0.1425991,2.1172028,0.4228992
				c0.664093,0.2763996,1.2519989,0.6434994,1.7421875,1.0946999c0.5156097,0.4707012,0.906311,1.0059013,1.1934052,1.6328011
				c0.2949066,0.6464996,0.4394073,1.3046989,0.4394073,2.0146999v1.0498009c0,0.7010994-0.148407,1.3798981-0.4394073,2.0155983
				c-0.289093,0.6230011-0.6894989,1.1738014-1.1934052,1.6406021c-0.4901886,0.4726982-1.0780945,0.8515968-1.7421875,1.1269989
				c-0.6797028,0.2753983-1.3906097,0.4130974-2.1172028,0.4130974h-0.2187042l5.7324066,9.2490005h-2.3945007l-5.7714996-9.2490005
				h-8.4902039V46.78759z"/>
		</g>
	</g>
	<g>
		<g>
			<path class="st1" d="M239.8824005,46.6488876h-12.4941101c-0.7343903,0-1.449295-0.1357002-2.128891-0.402298
				c-0.6797028-0.285202-1.2598114-0.6562996-1.7304993-1.1035004c-0.4863129-0.4687996-0.8652039-1.0020027-1.156311-1.6329002
				c-0.2910004-0.6230011-0.4393921-1.3007011-0.4393921-2.0097008V31.0785885c0-0.705101,0.1464996-1.3652,0.4393921-2.0146008
				c0.2969055-0.6435986,0.6875-1.1943989,1.160202-1.6396999c0.4629059-0.4531002,1.0429993-0.8300991,1.7207031-1.1133003
				c0.6660004-0.2694988,1.3827972-0.4042988,2.1347961-0.4042988h12.4941101v1.9981003h-12.4941101
				c-0.472702,0-0.9082031,0.0800991-1.3300934,0.2460995c-0.4179993,0.1718006-0.7812958,0.4022999-1.0781097,0.6796989
				c-0.3027954,0.2910004-0.5468903,0.6318016-0.7226868,1.0117016c-0.183609,0.3710995-0.273407,0.785099-0.273407,1.2362995
				v4.2109013h9.2577972v2.0039978h-9.2577972v4.2070007c0,0.4491997,0.089798,0.8496017,0.2695007,1.222599
				c0.1797028,0.3848,0.4237976,0.7266006,0.726593,1.017601c0.308609,0.2871017,0.671814,0.5195007,1.0800018,0.6875
				c0.433609,0.1748009,0.8653107,0.2598,1.3282013,0.2598h12.4941101V46.6488876z"/>
		</g>
	</g>
	<g>
		<path class="st2" d="M20.7296009,68.0766907c0,2.4549942-1.9893017,4.4442978-4.4453011,4.4442978H4.4498
			c-2.4545999,0-4.4439001-1.9893036-4.4439001-4.4442978V56.2406883c0-2.455101,1.9893-4.4453011,4.4439001-4.4453011h11.8344994
			c2.4559994,0,4.4453011,1.9902,4.4453011,4.4453011V68.0766907z"/>
	</g>
	<g>
		<path class="st0" d="M46.6372986,68.0766907c0,2.4549942-1.9906998,4.4442978-4.4468002,4.4442978H30.3589993
			c-2.4560986,0-4.4467983-1.9893036-4.4467983-4.4442978V56.2406883c0-2.455101,1.9906998-4.4453011,4.4467983-4.4453011
			h11.8314991c2.4561005,0,4.4468002,1.9902,4.4468002,4.4453011V68.0766907z"/>
	</g>
	<g>
		<path class="st2" d="M72.5435028,68.0766907c0,2.4549942-1.9892044,4.4442978-4.4438019,4.4442978H56.2638016
			c-2.4546013,0-4.4439011-1.9893036-4.4439011-4.4442978V56.2406883c0-2.455101,1.9892998-4.4453011,4.4439011-4.4453011
			h11.8358994c2.4545975,0,4.4438019,1.9902,4.4438019,4.4453011V68.0766907z"/>
	</g>
	<g>
		<path class="st2" d="M20.7296009,42.1684875c0,2.4541016-1.9893017,4.4453011-4.4453011,4.4453011H4.4498
			c-2.4531,0-4.4439001-1.9911995-4.4439001-4.4453011V30.332489c0-2.4531002,1.9908-4.4433002,4.4439001-4.4433002h11.8344994
			c2.4559994,0,4.4453011,1.9902,4.4453011,4.4433002V42.1684875z"/>
	</g>
	<g>
		<path class="st0" d="M20.6919994,16.2348881c0,2.4549999-1.9892998,4.4453011-4.4452991,4.4453011H4.4122
			c-2.4545999,0-4.4439001-1.9903011-4.4439001-4.4453011V4.3983884c0-2.4546001,1.9893-4.4443002,4.4439001-4.4443002h11.8345003
			c2.4559994,0,4.4452991,1.9897001,4.4452991,4.4443002V16.2348881z"/>
	</g>
	<g>
		<path class="st0" d="M46.6372986,16.2631874c0,2.4560013-1.9892998,4.4443016-4.4468002,4.4443016H30.3589993
			c-2.4560986,0-4.4467983-1.9883003-4.4467983-4.4443016V4.4267883c0-2.4551001,1.9906998-4.4439001,4.4467983-4.4439001
			h11.8314991c2.4575005,0,4.4468002,1.9888,4.4468002,4.4439001V16.2631874z"/>
	</g>
	<g>
		<path class="st0" d="M72.5435028,16.2631874c0,2.4560013-1.9906998,4.4443016-4.4438019,4.4443016H56.2638016
			c-2.4546013,0-4.4454002-1.9883003-4.4454002-4.4443016V4.4267883c0-2.4551001,1.990799-4.4439001,4.4454002-4.4439001h11.8358994
			c2.4531021,0,4.4438019,1.9888,4.4438019,4.4439001V16.2631874z"/>
	</g>
	<g>
		<path class="st1" d="M46.6372986,31.3285885c-5.3002968,2.7978992-11.1968002,5.1504002-17.6908989,7.697298
			c6.8158989-1.5820999,12.6483994-3.2538986,17.6908989-5.0175972v8.1601982c0,2.4541016-1.9843979,4.4453011-4.4468002,4.4453011
			H30.3589993c-2.4560986,0-4.4467983-1.9911995-4.4467983-4.4453011V30.332489
			c0-2.4531002,1.9906998-4.4433002,4.4467983-4.4433002h11.8314991c2.4624023,0,4.4468002,1.9902,4.4468002,4.4433002V31.3285885z"
			/>
	</g>
	<path class="st1" d="M193.4389954,29.7059879c-0.3202972-0.7201996-0.7792969-1.3598003-1.3690948-1.919899
		c-0.5605011-0.5400009-1.2402039-0.9702015-2.0195007-1.3003006c-0.7617035-0.3197994-1.5899048-0.4799004-2.4804993-0.4799004
		h-1.0664062c-0.1464996,0-0.289093,0-0.4335938,0c-0.5820007,0-1.1621094,0-1.746109,0c-2.0605011,0-4.1201019,0-6.1797028,0
		c-0.8905945,0-1.7206879,0.1601009-2.4803925,0.4799004c-0.7792969,0.3300991-1.4600067,0.7602997-2.0196075,1.3003006
		c-0.5902863,0.5600986-1.050293,1.1996994-1.3700867,1.919899c-0.339798,0.7299995-0.5102081,1.5200996-0.5102081,2.3300991v8.7598
		c0,0.8198013,0.1704102,1.580101,0.5102081,2.3398018c0.3197937,0.7104988,0.7798004,1.3604012,1.3700867,1.9101982
		c0.5703125,0.5400009,1.2598114,0.9799995,2.0293121,1.2803001c0.7704926,0.3095016,1.6006012,0.4696999,2.4706879,0.4696999
		h8.2364044h0.1835022h0.0059052h1c0.8690948,0,1.6991882-0.1601982,2.4687958-0.4696999
		c0.7713928-0.3003006,1.4608917-0.7402992,2.0312042-1.2803001c0.589798-0.5497971,1.0487976-1.1996994,1.3690948-1.9101982
		c0.3399048-0.7597008,0.5097961-1.5200005,0.5097961-2.3398018v-8.7598
		C193.9487915,31.2260876,193.7789001,30.4359875,193.4389954,29.7059879z M191.8296967,40.795887
		c0,0.5601006-0.1094055,1.080101-0.3301086,1.5601006c-0.2304993,0.5097008-0.539093,0.9300995-0.9198914,1.2900009
		c-0.3907013,0.3599014-0.8496094,0.660099-1.3496094,0.8700981c-0.5195923,0.2100029-1.0605927,0.3198013-1.6601868,0.3198013
		h-1.0371094h-0.1835938h-8.2051086c-0.5995941,0-1.1405945-0.1097984-1.6600952-0.3198013
		c-0.5-0.2099991-0.9599915-0.5101967-1.3495941-0.8700981c-0.3809052-0.3599014-0.690506-0.7803001-0.9199982-1.2900009
		c-0.2207031-0.4799995-0.3300018-1-0.3300018-1.5601006v-8.7598c0-0.5599995,0.1092987-1.0800991,0.3300018-1.5599995
		c0.2294922-0.5102997,0.5292969-0.9301987,0.9296875-1.2901001c0.3799133-0.3597984,0.8301086-0.660099,1.3399048-0.8701
		c0.5195007-0.2098999,1.0702972-0.3099995,1.6600952-0.3099995h7.9551086h0.4335938h1.0371094
		c0.589798,0,1.1405945,0.1000996,1.6601868,0.3099995c0.5097046,0.210001,0.9589081,0.5103016,1.3398132,0.8701
		c0.4003906,0.3599014,0.6991882,0.7798004,0.9296875,1.2901001c0.2207031,0.4799004,0.3301086,1,0.3301086,1.5599995V40.795887z"/>
</g>
</svg>
