<svg height="511pt" viewBox="-27 1 511 511.9991" width="511pt" xmlns="http://www.w3.org/2000/svg"><path d="m228.46875 424.285156c-13.546875 0-24.527344-10.980468-24.527344-24.527344v-18.484374c0-13.546876 10.980469-24.527344 24.527344-24.527344s24.527344 10.980468 24.527344 24.527344v18.484374c0 13.546876-10.980469 24.527344-24.527344 24.527344zm0 0" fill="#f2d1a5"/><path d="m167.164062 501.785156v-26.464844c0-12.761718 3.675782-25.253906 10.585938-35.980468 6.0625-9.402344 16.484375-15.085938 27.671875-15.085938h45.488281c11.1875 0 21.609375 5.679688 27.667969 15.085938 6.914063 10.726562 10.589844 23.21875 10.589844 35.980468v26.464844zm0 0" fill="#b6baf2"/><path d="m386.789062 424.285156c-13.546874 0-24.527343-10.980468-24.527343-24.527344v-18.484374c0-13.546876 10.980469-24.527344 24.527343-24.527344 13.542969 0 24.523438 10.980468 24.523438 24.527344v18.484374c0 13.546876-10.980469 24.527344-24.523438 24.527344zm0 0" fill="#f2d1a5"/><path d="m325.480469 501.785156v-26.464844c0-12.761718 3.675781-25.253906 10.589843-35.980468 6.058594-9.402344 16.480469-15.085938 27.667969-15.085938h45.488281c11.1875 0 21.609376 5.679688 27.667969 15.085938 6.914063 10.726562 10.589844 23.21875 10.589844 35.980468v26.464844zm0 0" fill="#b6baf2"/><path d="m72.089844 424.285156c-13.546875 0-24.527344-10.980468-24.527344-24.527344v-18.484374c0-13.546876 10.980469-24.527344 24.527344-24.527344s24.527344 10.980468 24.527344 24.527344v18.484374c0 13.546876-10.980469 24.527344-24.527344 24.527344zm0 0" fill="#f2d1a5"/><path d="m10.78125 501.785156v-26.464844c0-12.761718 3.675781-25.253906 10.589844-35.980468 6.058594-9.402344 16.480468-15.085938 27.671875-15.085938h45.484375c11.1875 0 21.609375 5.679688 27.671875 15.085938 6.910156 10.726562 10.585937 23.21875 10.585937 35.980468v26.464844zm0 0" fill="#b6baf2"/><path d="m191.246094 169.921875-14.378906 48.183594h106.925781l-13.378907-48.582031" fill="#e3e3e3"/><path d="m176.867188 218.105469h106.925781v37.097656h-106.925781zm0 0" fill="#5e6e82"/><path d="m315.054688 94.945312c0 46.71875-37.875 84.59375-84.59375 84.59375-46.722657 0-84.597657-37.875-84.597657-84.59375 0-46.722656 37.875-84.59375 84.597657-84.59375 46.71875 0 84.59375 37.871094 84.59375 84.59375zm0 0" fill="#fff68e"/><path d="m259.804688 414.835938c2.222656-4.582032 3.472656-9.71875 3.472656-15.144532v-18.484375c0-19.195312-15.613282-34.808593-34.808594-34.808593-19.191406 0-34.808594 15.613281-34.808594 34.808593v18.484375c0 5.375 1.226563 10.472656 3.414063 15.023438-11.414063 2.230468-21.511719 8.976562-27.964844 18.988281-8 12.414063-12.226563 26.785156-12.226563 41.550781v26.464844c0 5.675781 4.601563 10.28125 10.28125 10.28125h122.003907c5.675781 0 10.28125-4.605469 10.28125-10.28125v-26.464844c0-14.765625-4.226563-29.136718-12.230469-41.550781-6.347656-9.851563-16.226562-16.53125-27.414062-18.867187zm-45.578126-33.628907c0-7.855469 6.390626-14.246093 14.242188-14.246093 7.855469 0 14.246094 6.390624 14.246094 14.246093v18.484375c0 7.648438-6.0625 13.890625-13.632813 14.214844h-1.226562c-7.570313-.324219-13.632813-6.566406-13.632813-14.214844v-18.484375zm64.660157 110.230469h-101.441407v-16.183594c0-10.808594 3.09375-21.324218 8.949219-30.410156 4.183594-6.496094 11.296875-10.375 19.027344-10.375h13.769531v2.550781c0 5.675781 4.601563 10.28125 10.28125 10.28125 5.675782 0 10.28125-4.605469 10.28125-10.28125v-2.550781h11.15625c7.726563 0 14.839844 3.875 19.027344 10.371094 5.855469 9.089844 8.949219 19.605468 8.949219 30.414062zm0 0"/><path d="m445.539062 433.703125c-6.347656-9.851563-16.230468-16.53125-27.417968-18.867187 2.226562-4.582032 3.472656-9.71875 3.472656-15.144532v-18.484375c0-19.195312-15.613281-34.808593-34.804688-34.808593-19.195312 0-34.808593 15.613281-34.808593 34.808593v18.484375c0 5.375 1.226562 10.472656 3.414062 15.023438-11.414062 2.226562-21.511719 8.976562-27.96875 18.988281-7.996093 12.414063-12.226562 26.78125-12.226562 41.550781v26.464844c0 5.675781 4.605469 10.28125 10.28125 10.28125h122.003906c5.679687 0 10.28125-4.605469 10.28125-10.28125v-26.464844c0-14.769531-4.226563-29.136718-12.226563-41.550781zm-72.996093-52.496094c0-7.855469 6.390625-14.246093 14.246093-14.246093 7.851563 0 14.242188 6.390624 14.242188 14.246093v18.484375c0 7.648438-6.0625 13.890625-13.628906 14.214844h-1.230469c-7.566406-.324219-13.632813-6.566406-13.632813-14.214844v-18.484375zm64.660156 110.230469h-101.441406v-16.183594c0-10.808594 3.09375-21.324218 8.949219-30.410156 4.1875-6.496094 11.300781-10.375 19.027343-10.375h21.824219c.40625.015625.816406.03125 1.226562.03125.410157 0 .820313-.015625 1.226563-.03125h21.210937c7.726563 0 14.839844 3.875 19.027344 10.375 5.855469 9.085938 8.949219 19.601562 8.949219 30.410156zm0 0"/><path d="m103.425781 414.835938c2.222657-4.582032 3.472657-9.71875 3.472657-15.144532v-18.484375c0-19.195312-15.617188-34.808593-34.808594-34.808593s-34.808594 15.613281-34.808594 34.808593v18.484375c0 5.375 1.226562 10.472656 3.414062 15.023438-11.417968 2.230468-21.515624 8.976562-27.96875 18.988281-7.996093 12.414063-12.226562 26.78125-12.226562 41.550781v26.464844c0 5.675781 4.605469 10.28125 10.28125 10.28125h122.003906c5.679688 0 10.28125-4.605469 10.28125-10.28125v-26.464844c0-14.769531-4.226562-29.136718-12.226562-41.550781-6.347656-9.851563-16.226563-16.53125-27.414063-18.867187zm-45.582031-33.628907c0-7.855469 6.390625-14.246093 14.246094-14.246093 7.851562 0 14.242187 6.390624 14.242187 14.246093v18.484375c0 7.648438-6.058593 13.890625-13.628906 14.214844h-1.230469c-7.566406-.324219-13.628906-6.566406-13.628906-14.214844zm64.660156 110.230469h-101.441406v-16.183594c0-10.808594 3.097656-21.324218 8.953125-30.414062 4.183594-6.492188 11.296875-10.371094 19.023437-10.371094h21.824219c.40625.015625.8125.03125 1.226563.03125.410156 0 .816406-.015625 1.226562-.03125h21.210938c7.726562 0 14.839844 3.875 19.027344 10.375 5.855468 9.085938 8.949218 19.601562 8.949218 30.410156zm0 0"/><path d="m71.785156 330.980469c5.675782 0 10.28125-4.601563 10.28125-10.28125v-12.082031h137.917969v12.082031c0 5.679687 4.601563 10.28125 10.28125 10.28125 5.675781 0 10.28125-4.601563 10.28125-10.28125v-12.082031h135.71875v12.082031c0 5.679687 4.601563 10.28125 10.28125 10.28125 5.675781 0 10.28125-4.601563 10.28125-10.28125v-22.460938c0-5.679687-4.605469-10.28125-10.28125-10.28125-.460937 0-.90625.039063-1.347656.097657h-144.246094v-22.636719h42.839844c5.679687 0 10.28125-4.601563 10.28125-10.28125v-37.097657c0-.074218-.007813-.140624-.007813-.210937-.003906-.148437-.011718-.296875-.023437-.445313-.015625-.234374-.035157-.472656-.066407-.703124-.019531-.132813-.039062-.261719-.058593-.390626-.046875-.265624-.101563-.523437-.167969-.78125-.019531-.066406-.027344-.132812-.042969-.199218l-11.3125-41.070313c25.839844-16.96875 42.941407-46.203125 42.941407-79.359375 0-52.316406-42.5625-94.878906-94.875-94.878906-52.316407 0-94.875 42.5625-94.875 94.878906 0 33.402344 17.351562 62.824219 43.511718 79.734375l-12.035156 40.332031c-.011719.03125-.019531.0625-.03125.097657l-.015625.054687c-.011719.035156-.015625.074219-.027344.109375-.089843.3125-.164062.632813-.226562.957031-.019531.117188-.035157.234376-.050781.351563-.039063.246094-.066407.496094-.085938.75-.011719.148437-.019531.292969-.023438.441406-.003906.109375-.015624.21875-.015624.332031v37.097657c0 5.679687 4.605468 10.28125 10.28125 10.28125h43.523437v22.636719h-147.257813c-.441406-.054688-.890624-.097657-1.347656-.097657-5.679687 0-10.28125 4.605469-10.28125 10.28125v22.464844c0 5.675781 4.601563 10.277344 10.28125 10.277344zm158.675782-161.789063c-5.386719 0-10.632813-.589844-15.695313-1.683594v-37.121093h32.699219v36.816406c-5.464844 1.285156-11.152344 1.988281-17.003906 1.988281zm-74.3125-74.3125c0-40.976562 33.335937-74.316406 74.3125-74.316406 40.976562 0 74.3125 33.339844 74.3125 74.316406 0 27.273438-14.78125 51.152344-36.746094 64.078125v-28.570312h10.28125c5.679687 0 10.28125-4.601563 10.28125-10.28125 0-5.675781-4.601563-10.28125-10.28125-10.28125h-10.28125v-10.007813c0-5.679687-4.601563-10.28125-10.28125-10.28125-5.675782 0-10.28125 4.601563-10.28125 10.28125v10.007813h-32.699219v-10.007813c0-5.679687-4.605469-10.28125-10.28125-10.28125-5.679687 0-10.285156 4.601563-10.285156 10.28125v10.007813h-11.164063c-5.679687 0-10.285156 4.605469-10.285156 10.28125 0 5.679687 4.605469 10.28125 10.285156 10.28125h11.164063v29.324219c-22.679688-12.738282-38.050781-37.019532-38.050781-64.832032zm44.859374 90.1875c.21875.082032.441407.15625.667969.21875 9.082031 2.898438 18.753907 4.46875 28.785157 4.46875 9.578124 0 18.824218-1.429687 27.550781-4.082031 2.113281-.054687 4.070312-.746094 5.683593-1.894531l6.601563 23.980468h-79.632813l7.105469-23.808593c1.070313.394531 2.148438.761719 3.238281 1.117187zm-13.859374 43.253906h86.363281v16.535157h-86.363281zm0 0"/><path d="m337.953125 38.542969c2.121094 0 4.265625-.65625 6.105469-2.015625l24.3125-17.976563c4.566406-3.375 5.53125-9.8125 2.15625-14.378906-3.375-4.566406-9.8125-5.535156-14.378906-2.15625l-24.316407 17.976563c-4.566406 3.375-5.53125 9.8125-2.15625 14.378906 2.015625 2.726562 5.125 4.171875 8.277344 4.171875zm0 0"/><path d="m352.730469 86.609375c-4.566407-3.375-11.003907-2.410156-14.378907 2.15625s-2.410156 11.003906 2.152344 14.378906l24.316406 17.976563c1.839844 1.359375 3.980469 2.015625 6.105469 2.015625 3.148438 0 6.261719-1.441407 8.277344-4.167969 3.375-4.566406 2.410156-11.003906-2.15625-14.382812zm0 0"/><path d="m336.832031 60.546875c0 5.675781 4.605469 10.28125 10.28125 10.28125h30.242188c5.675781 0 10.28125-4.605469 10.28125-10.28125 0-5.679687-4.605469-10.28125-10.28125-10.28125h-30.242188c-5.675781 0-10.28125 4.601563-10.28125 10.28125zm0 0"/><path d="m86.972656 18.550781 24.316406 17.976563c1.839844 1.359375 3.980469 2.015625 6.105469 2.015625 3.148438 0 6.261719-1.445313 8.277344-4.171875 3.375-4.566406 2.410156-11.003906-2.15625-14.378906l-24.316406-17.976563c-4.566407-3.375-11.003907-2.410156-14.378907 2.152344-3.375 4.570312-2.414062 11.003906 2.152344 14.382812zm0 0"/><path d="m102.617188 86.609375-24.316407 17.976563c-4.566406 3.378906-5.53125 9.816406-2.15625 14.382812 2.019531 2.726562 5.125 4.167969 8.277344 4.167969 2.121094 0 4.265625-.65625 6.105469-2.015625l24.3125-17.976563c4.566406-3.375 5.53125-9.8125 2.15625-14.378906-3.378906-4.566406-9.816406-5.53125-14.378906-2.15625zm0 0"/><path d="m77.992188 70.828125h30.238281c5.679687 0 10.285156-4.605469 10.285156-10.28125 0-5.679687-4.605469-10.28125-10.285156-10.28125h-30.238281c-5.675782 0-10.28125 4.601563-10.28125 10.28125 0 5.675781 4.605468 10.28125 10.28125 10.28125zm0 0"/><path d="m204.246094 71.101562c.78125 0 1.570312-.089843 2.363281-.277343l.453125-.105469c5.527344-1.300781 8.953125-6.832031 7.65625-12.359375-1.300781-5.53125-6.835938-8.953125-12.363281-7.65625l-.453125.105469c-5.527344 1.300781-8.953125 6.832031-7.652344 12.359375 1.109375 4.738281 5.332031 7.933593 9.996094 7.933593zm0 0"/><path d="m227.066406 466.558594-.453125.109375c-5.527343 1.300781-8.953125 6.832031-7.652343 12.359375 1.109374 4.738281 5.332031 7.933594 10 7.933594.777343 0 1.566406-.089844 2.359374-.277344l.453126-.105469c5.527343-1.300781 8.957031-6.835937 7.65625-12.363281-1.300782-5.527344-6.832032-8.949219-12.363282-7.65625zm0 0"/></svg>