<?xml version="1.0" encoding="utf-8"?>
<!-- Generator: Adobe Illustrator 25.2.3, SVG Export Plug-In . SVG Version: 6.00 Build 0)  -->
<svg version="1.1" id="Layer_1" xmlns="http://www.w3.org/2000/svg" xmlns:xlink="http://www.w3.org/1999/xlink" x="0px" y="0px"
	 viewBox="0 0 70 68" style="enable-background:new 0 0 70 68;" xml:space="preserve">
<style type="text/css">
	.st0{fill:#FEBF2D;}
</style>
<g>
	<path class="st0" d="M30,3.7c0.5-0.9,1.2-1.7,2.1-2.3C32.9,0.9,34,0.6,35,0.6c1,0,2.1,0.3,2.9,0.8s1.6,1.3,2.1,2.3l7.7,15.7
		L65,21.9c1,0.1,2,0.6,2.8,1.3c0.8,0.7,1.4,1.5,1.7,2.5c0.3,1,0.4,2,0.1,3.1c-0.2,1-0.8,1.9-1.5,2.7L55.6,43.6l3,17.2
		c0.2,1,0.1,2.1-0.3,3c-0.4,1-1,1.8-1.9,2.4c-0.8,0.6-1.8,1-2.9,1c-1,0.1-2.1-0.1-3-0.6L35,58.6l-15.5,8.1c-0.9,0.5-2,0.7-3,0.6
		c-1-0.1-2-0.4-2.9-1c-0.8-0.6-1.5-1.4-1.9-2.4c-0.4-1-0.5-2-0.3-3l2.9-17.2L1.9,31.4c-0.7-0.7-1.3-1.6-1.5-2.7
		c-0.2-1-0.2-2.1,0.1-3.1c0.3-1,0.9-1.9,1.7-2.5C3,22.5,4,22.1,5,21.9l17.3-2.5L30,3.7L30,3.7z"/>
</g>
</svg>
