<?xml version="1.0" encoding="UTF-8" standalone="no"?>
<!-- Generator: Adobe Illustrator 25.4.1, SVG Export Plug-In . SVG Version: 6.00 Build 0)  -->

<svg
   version="1.1"
   id="Layer_1"
   x="0px"
   y="0px"
   viewBox="0 0 525.50002 143.2"
   xml:space="preserve"
   sodipodi:docname="logo_white_codenotary.svg"
   width="525.5"
   height="143.2"
   inkscape:version="1.1.1 (1:1.1+202109281946+c3084ef5ed)"
   xmlns:inkscape="http://www.inkscape.org/namespaces/inkscape"
   xmlns:sodipodi="http://sodipodi.sourceforge.net/DTD/sodipodi-0.dtd"
   xmlns="http://www.w3.org/2000/svg"
   xmlns:svg="http://www.w3.org/2000/svg"><defs
   id="defs55" /><sodipodi:namedview
   id="namedview53"
   pagecolor="#ffffff"
   bordercolor="#666666"
   borderopacity="1.0"
   inkscape:pageshadow="2"
   inkscape:pageopacity="0.0"
   inkscape:pagecheckerboard="0"
   showgrid="false"
   fit-margin-top="0"
   fit-margin-left="0"
   fit-margin-right="0"
   fit-margin-bottom="0"
   inkscape:zoom="2.4038808"
   inkscape:cx="114.60635"
   inkscape:cy="67.599025"
   inkscape:window-width="3372"
   inkscape:window-height="1376"
   inkscape:window-x="68"
   inkscape:window-y="27"
   inkscape:window-maximized="1"
   inkscape:current-layer="Layer_1" />
<style
   type="text/css"
   id="style2">
	.st0{fill:#ffffff;}
</style>
<g
   id="g50"
   transform="translate(-20.6,-28.9)">
	<path
   class="st0"
   d="m 206,84.6 c -3.6,0 -6.3,1.3 -8.3,4 -2,2.7 -2.9,6.4 -2.9,11.2 0,10 3.7,15 11.2,15 3.1,0 6.9,-0.8 11.4,-2.4 v 8 c -3.7,1.5 -7.8,2.3 -12.3,2.3 -6.5,0 -11.5,-2 -14.9,-5.9 -3.4,-4 -5.2,-9.6 -5.2,-17 0,-4.7 0.8,-8.7 2.5,-12.2 1.7,-3.5 4.1,-6.2 7.3,-8 3.2,-1.9 6.9,-2.8 11.2,-2.8 4.3,0 8.7,1.1 13.1,3.2 l -3.1,7.7 c -1.7,-0.8 -3.4,-1.5 -5,-2.1 -1.7,-0.7 -3.3,-1 -5,-1 z"
   id="path4" />
	<path
   class="st0"
   d="m 233.7,105 c 0,3.4 0.6,5.9 1.7,7.7 1.1,1.7 2.9,2.6 5.4,2.6 2.5,0 4.3,-0.9 5.4,-2.6 1.1,-1.7 1.7,-4.3 1.7,-7.7 0,-3.4 -0.6,-5.9 -1.7,-7.6 -1.1,-1.7 -2.9,-2.5 -5.4,-2.5 -2.5,0 -4.3,0.8 -5.4,2.5 -1.2,1.6 -1.7,4.2 -1.7,7.6 z m 23.7,0 c 0,5.6 -1.5,9.9 -4.4,13.1 -2.9,3.2 -7,4.7 -12.3,4.7 -3.3,0 -6.2,-0.7 -8.7,-2.1 -2.5,-1.4 -4.4,-3.5 -5.8,-6.2 -1.3,-2.7 -2,-5.8 -2,-9.4 0,-5.6 1.5,-9.9 4.4,-13 2.9,-3.1 7,-4.7 12.3,-4.7 3.3,0 6.2,0.7 8.7,2.1 2.5,1.4 4.4,3.5 5.8,6.2 1.3,2.5 2,5.7 2,9.3 z"
   id="path6" />
	<path
   class="st0"
   d="m 275.9,122.7 c -4,0 -7.2,-1.6 -9.5,-4.7 -2.3,-3.1 -3.4,-7.4 -3.4,-13 0,-5.6 1.2,-10 3.5,-13.1 2.3,-3.1 5.6,-4.7 9.7,-4.7 4.3,0 7.6,1.7 9.9,5 h 0.3 c -0.5,-2.6 -0.7,-4.8 -0.7,-6.8 v -11 h 9.4 V 122 h -7.2 l -1.8,-4.4 h -0.4 c -2.2,3.5 -5.5,5.1 -9.8,5.1 z m 3.3,-7.4 c 2.4,0 4.1,-0.7 5.2,-2.1 1.1,-1.4 1.7,-3.7 1.8,-7.1 v -1 c 0,-3.7 -0.6,-6.3 -1.7,-7.9 -1.1,-1.6 -3,-2.4 -5.5,-2.4 -2.1,0 -3.7,0.9 -4.9,2.7 -1.1,1.8 -1.7,4.3 -1.7,7.7 0,3.4 0.6,5.9 1.7,7.6 1.2,1.7 2.9,2.5 5.1,2.5 z"
   id="path8" />
	<path
   class="st0"
   d="m 318.9,93.9 c -2,0 -3.5,0.6 -4.7,1.9 -1.1,1.2 -1.8,3 -1.9,5.3 h 13.1 c 0,-2.3 -0.6,-4.1 -1.8,-5.3 -1.1,-1.3 -2.7,-1.9 -4.7,-1.9 z m 1.3,28.8 c -5.5,0 -9.8,-1.5 -12.9,-4.6 -3.1,-3 -4.7,-7.3 -4.7,-12.9 0,-5.7 1.4,-10.2 4.3,-13.3 2.9,-3.1 6.8,-4.7 11.9,-4.7 4.8,0 8.6,1.4 11.3,4.1 2.7,2.8 4,6.6 4,11.4 v 4.5 H 312 c 0.1,2.7 0.9,4.7 2.4,6.2 1.5,1.5 3.5,2.2 6.2,2.2 2.1,0 4,-0.2 5.8,-0.6 1.8,-0.4 3.8,-1.1 5.8,-2.1 v 7.2 c -1.6,0.8 -3.4,1.4 -5.2,1.8 -1.8,0.6 -4.1,0.8 -6.8,0.8 z"
   id="path10" />
	<path
   class="st0"
   d="M 373.3,122.1 H 364 v -20 c 0,-2.5 -0.4,-4.3 -1.3,-5.5 -0.9,-1.2 -2.3,-1.9 -4.2,-1.9 -2.6,0 -4.5,0.9 -5.7,2.6 -1.2,1.7 -1.7,4.6 -1.7,8.7 v 16.1 h -9.3 V 87.9 h 7.1 l 1.3,4.4 h 0.5 c 1,-1.7 2.5,-2.9 4.3,-3.7 1.8,-0.9 3.9,-1.3 6.2,-1.3 4,0 7,1.1 9.1,3.2 2.1,2.1 3.1,5.2 3.1,9.3 v 22.3 z"
   id="path12" />
	<path
   class="st0"
   d="m 390.4,105 c 0,3.4 0.6,5.9 1.7,7.7 1.1,1.7 2.9,2.6 5.4,2.6 2.5,0 4.3,-0.9 5.4,-2.6 1.1,-1.7 1.7,-4.3 1.7,-7.7 0,-3.4 -0.5,-5.9 -1.7,-7.6 -1.1,-1.7 -2.9,-2.5 -5.4,-2.5 -2.5,0 -4.3,0.8 -5.4,2.5 -1.2,1.6 -1.7,4.2 -1.7,7.6 z m 23.7,0 c 0,5.6 -1.5,9.9 -4.4,13.1 -2.9,3.1 -7,4.7 -12.3,4.7 -3.3,0 -6.2,-0.7 -8.7,-2.1 -2.5,-1.4 -4.4,-3.5 -5.8,-6.2 -1.3,-2.7 -2,-5.8 -2,-9.4 0,-5.6 1.5,-9.9 4.4,-13 2.9,-3.1 7,-4.7 12.3,-4.7 3.3,0 6.2,0.7 8.7,2.1 2.5,1.4 4.4,3.5 5.8,6.2 1.3,2.5 2,5.7 2,9.3 z"
   id="path14" />
	<path
   class="st0"
   d="m 436.2,115.3 c 1.6,0 3.6,-0.4 5.9,-1.1 v 6.9 c -2.3,1 -5.2,1.6 -8.6,1.6 -3.7,0 -6.5,-0.9 -8.2,-2.8 -1.7,-1.9 -2.5,-4.7 -2.5,-8.5 V 94.9 h -4.5 V 91 l 5.1,-3.1 2.7,-7.2 h 6 V 88 h 9.6 v 7 h -9.6 v 16.5 c 0,1.3 0.4,2.3 1.1,2.9 0.8,0.6 1.8,0.9 3,0.9 z"
   id="path16" />
	<path
   class="st0"
   d="m 470.7,122.1 -1.8,-4.7 h -0.2 c -1.6,2 -3.2,3.4 -4.9,4.1 -1.7,0.8 -3.8,1.1 -6.5,1.1 -3.3,0 -5.9,-0.9 -7.8,-2.8 -1.9,-1.9 -2.8,-4.6 -2.8,-8 0,-3.6 1.3,-6.3 3.8,-8 2.6,-1.7 6.4,-2.7 11.5,-2.9 l 5.9,-0.2 v -1.5 c 0,-3.5 -1.8,-5.2 -5.3,-5.2 -2.7,0 -5.9,0.8 -9.6,2.5 l -3.1,-6.3 c 3.9,-2.1 8.3,-3.1 13.1,-3.1 4.6,0 8.1,1 10.6,3 2.4,2 3.7,5 3.7,9.1 V 122 Z m -2.7,-15.8 -3.6,0.1 c -2.7,0.1 -4.7,0.6 -6.1,1.5 -1.3,0.9 -2,2.3 -2,4.1 0,2.6 1.5,3.9 4.5,3.9 2.2,0 3.9,-0.6 5.2,-1.9 1.3,-1.2 2,-2.9 2,-5 z"
   id="path18" />
	<path
   class="st0"
   d="m 506,87.3 c 1.3,0 2.3,0.1 3.2,0.3 l -0.7,8.8 c -0.8,-0.2 -1.7,-0.3 -2.8,-0.3 -3,0 -5.3,0.8 -7,2.3 -1.7,1.5 -2.5,3.7 -2.5,6.4 v 17.4 h -9.3 V 87.9 h 7.1 l 1.4,5.8 h 0.5 c 1.1,-1.9 2.5,-3.5 4.3,-4.6 1.7,-1.2 3.7,-1.8 5.8,-1.8 z"
   id="path20" />
	<path
   class="st0"
   d="m 510.5,87.9 h 10.2 l 6.5,19.3 c 0.6,1.7 0.9,3.7 1.1,5.9 h 0.2 c 0.2,-2.1 0.7,-4.1 1.3,-5.9 l 6.3,-19.3 h 10 l -14.5,38.6 c -1.3,3.6 -3.2,6.2 -5.7,8 -2.4,1.8 -5.3,2.7 -8.6,2.7 -1.6,0 -3.2,-0.2 -4.7,-0.5 v -7.4 c 1.1,0.3 2.3,0.4 3.7,0.4 1.7,0 3.1,-0.5 4.3,-1.5 1.2,-1 2.2,-2.5 2.9,-4.6 l 0.5,-1.7 z"
   id="path22" />
	<path
   class="st0"
   d="m 92.2,28.9 c -39.5,0 -71.6,32.1 -71.6,71.6 0,39.5 32.1,71.6 71.6,71.6 39.5,-0.1 71.5,-32.1 71.6,-71.6 0,-39.5 -32.1,-71.6 -71.6,-71.6 z m 0,3.2 c 37.8,0.1 68.4,30.7 68.4,68.4 0,37.8 -30.6,68.4 -68.4,68.4 -37.8,0 -68.4,-30.6 -68.4,-68.4 0,-37.8 30.6,-68.4 68.4,-68.4 z"
   id="path24" />
	<path
   class="st0"
   d="m 92.2,164.2 c -3.7,0 -7.4,-0.3 -11.1,-0.9 -0.6,-0.1 -1.1,-0.4 -1.3,-1 -0.2,-0.6 -0.1,-1.1 0.3,-1.6 0.4,-0.4 0.9,-0.6 1.5,-0.5 6.9,1.2 14.1,1.2 21.1,0 0.9,-0.1 1.7,0.4 1.8,1.2 0.1,0.9 -0.4,1.7 -1.2,1.8 -3.7,0.7 -7.4,1 -11.1,1 z m -31.1,-8.3 c -0.2,0 -0.6,-0.1 -0.7,-0.2 -6.4,-3.8 -12.1,-8.6 -16.9,-14.3 -0.6,-0.7 -0.5,-1.6 0.2,-2.2 0.7,-0.6 1.6,-0.5 2.2,0.2 4.6,5.4 10,10 16.1,13.5 0.6,0.4 0.9,1.1 0.8,1.7 -0.3,0.8 -0.9,1.3 -1.7,1.3 z m 62.2,0 c -0.7,0 -1.3,-0.5 -1.5,-1.1 -0.2,-0.6 0.1,-1.4 0.8,-1.8 6.1,-3.6 11.6,-8.1 16.1,-13.5 0.4,-0.4 0.9,-0.7 1.5,-0.6 0.6,0.1 1,0.5 1.2,1 0.2,0.6 0.1,1.1 -0.3,1.6 -4.8,5.7 -10.5,10.5 -16.9,14.2 -0.4,0.1 -0.6,0.2 -0.9,0.2 z M 33.8,123.4 c -0.7,0 -1.2,-0.4 -1.5,-1.1 -2.6,-7 -3.9,-14.4 -3.8,-21.8 0,-0.4 0.2,-0.8 0.4,-1.1 0.3,-0.3 0.7,-0.4 1.1,-0.4 0.9,0 1.6,0.7 1.6,1.6 0,7.1 1.2,14.1 3.7,20.7 0.3,0.8 -0.1,1.7 -0.9,2 -0.3,0.1 -0.4,0.1 -0.6,0.1 z m 116.8,0 c -0.2,0 -0.4,0 -0.6,-0.1 -0.4,-0.1 -0.7,-0.4 -0.9,-0.8 -0.2,-0.4 -0.2,-0.8 -0.1,-1.2 2.4,-6.6 3.6,-13.7 3.6,-20.8 v -0.1 c 0,-0.9 0.7,-1.6 1.6,-1.6 0.9,0 1.6,0.7 1.6,1.6 v 0.1 c 0,7.4 -1.3,14.8 -3.8,21.8 -0.1,0.6 -0.7,1 -1.4,1.1 z M 33.8,80.9 c -0.5,0 -1,-0.3 -1.3,-0.7 -0.3,-0.4 -0.4,-0.9 -0.2,-1.4 2.6,-7 6.3,-13.5 11.1,-19.2 0.6,-0.7 1.6,-0.8 2.2,-0.2 0.6,0.6 0.8,1.6 0.2,2.2 -4.6,5.4 -8.1,11.6 -10.5,18.3 -0.3,0.5 -0.8,1 -1.5,1 z m 116.8,-0.2 c -0.7,0 -1.2,-0.4 -1.5,-1 -2.4,-6.6 -6,-12.8 -10.6,-18.2 -0.4,-0.4 -0.4,-1 -0.3,-1.6 0.2,-0.5 0.6,-0.9 1.2,-1 0.6,-0.1 1.1,0.1 1.5,0.6 4.8,5.7 8.6,12.1 11.1,19.1 0.3,0.8 -0.1,1.7 -0.9,2 -0.1,0 -0.3,0.1 -0.5,0.1 z M 61.1,48.3 c -0.7,0 -1.3,-0.5 -1.5,-1.2 -0.2,-0.7 0.1,-1.4 0.7,-1.8 6.4,-3.8 13.4,-6.3 20.8,-7.6 0.6,-0.1 1.1,0.1 1.5,0.6 0.4,0.4 0.4,1 0.3,1.6 -0.2,0.6 -0.6,0.9 -1.2,1 -6.9,1.3 -13.6,3.7 -19.8,7.3 -0.3,0 -0.6,0.1 -0.8,0.1 z m 62.1,-0.1 c -0.3,0 -0.6,-0.1 -0.7,-0.2 -6.1,-3.5 -12.8,-5.9 -19.8,-7.2 -0.8,-0.2 -1.3,-1 -1.2,-1.8 0.1,-0.8 0.9,-1.4 1.8,-1.3 7.3,1.3 14.4,3.8 20.8,7.5 0.6,0.4 0.9,1.1 0.8,1.8 -0.4,0.7 -1,1.1 -1.7,1.2 z"
   id="path26" />
	<path
   class="st0"
   d="m 92.2,155.9 c -30.6,0 -55.4,-24.8 -55.4,-55.4 0,-30.6 24.8,-55.4 55.4,-55.4 30.6,0 55.4,24.8 55.4,55.4 0,30.6 -24.8,55.4 -55.4,55.4 z m 0,-107.7 c -28.9,0 -52.3,23.4 -52.3,52.3 0,28.9 23.4,52.3 52.3,52.3 28.9,0 52.3,-23.4 52.3,-52.3 0,-28.9 -23.4,-52.2 -52.3,-52.3 z"
   id="path28" />
	<path
   class="st0"
   d="m 89.3,116.1 c -0.1,0 -0.3,0 -0.4,-0.1 -5.7,-1.5 -10.2,-5.8 -12,-11.4 C 75.1,99.1 76.2,93 80,88.4 v -0.1 c 0.4,-0.4 0.7,-0.9 1.1,-1.2 L 95,73.2 c 4.4,-4.4 10.8,-6.1 16.7,-4.5 6,1.6 10.6,6.2 12.3,12.3 1.6,6 -0.1,12.4 -4.5,16.7 l -13.9,13.9 c -0.4,0.4 -0.9,0.8 -1.3,1.2 -0.6,0.5 -1.5,0.4 -2.1,-0.1 -0.6,-0.6 -0.6,-1.4 -0.1,-2.1 2.9,-3.6 3.9,-8.3 2.7,-12.6 -0.1,-0.6 0,-1.1 0.4,-1.5 l 6.6,-6.6 c 2.4,-2.5 2.3,-6.4 -0.1,-8.8 -2.4,-2.4 -6.4,-2.5 -8.8,-0.1 L 88.8,94.9 c -0.3,0.3 -0.6,0.6 -0.8,1 -1.6,2.5 -1.3,5.8 0.8,7.9 2.1,2.1 5.4,2.4 7.9,0.8 0.6,-0.4 1.4,-0.3 1.9,0.2 0.5,0.5 0.6,1.3 0.2,1.9 -0.4,0.6 -0.8,1.1 -1.2,1.5 l -7.4,7.4 c -0.1,0.4 -0.6,0.5 -0.9,0.5 z m -7,-25.7 c -2.9,3.6 -3.9,8.4 -2.6,12.9 1.3,4.4 4.7,8 9.1,9.5 l 4,-4 c -3.4,-0.2 -6.4,-2.1 -7.9,-5.1 -1.5,-3 -1.3,-6.6 0.6,-9.4 0.4,-0.6 0.8,-1.1 1.2,-1.5 l 13.9,-13.9 c 3.7,-3.7 9.7,-3.7 13.4,0 3.7,3.7 3.7,9.7 0,13.4 l -5.9,5.9 c 0.3,1.2 0.4,2.4 0.4,3.6 0,1 -0.1,2 -0.3,3 l 9.2,-9.1 c 5.6,-5.6 5.6,-14.6 0,-20.1 -5.6,-5.6 -14.6,-5.6 -20.1,0 l -14,14 c -0.3,0.1 -0.7,0.4 -1,0.8 z"
   id="path30" />
	<path
   class="st0"
   d="m 93.3,108.8 c -3.5,0 -6.7,-1.9 -8.3,-4.9 -1.6,-3.1 -1.5,-6.8 0.4,-9.7 0.1,-0.2 0.3,-0.3 0.4,-0.4 2.9,-1.9 6.6,-2.1 9.7,-0.4 3.1,1.6 4.9,4.8 4.9,8.3 0,1.8 -0.6,3.6 -1.6,5.2 -0.1,0.2 -0.3,0.3 -0.4,0.4 -1.4,1 -3.2,1.5 -5.1,1.5 z M 87.9,96.2 c -1.4,2.5 -1.1,5.6 1,7.6 2,2 5.2,2.4 7.6,1 0.6,-1 0.9,-2.1 0.9,-3.2 0,-2.3 -1.2,-4.4 -3.2,-5.5 -2,-1.1 -4.4,-1 -6.3,0.1 z"
   id="path32" />
	<path
   class="st0"
   d="m 106.3,99.1 c -0.1,0 -0.2,0 -0.4,-0.1 -0.6,-0.1 -0.9,-0.6 -1.1,-1.1 -1.3,-4.9 -5.1,-8.7 -10,-10 -0.6,-0.1 -0.9,-0.6 -1.1,-1.1 -0.1,-0.6 0,-1.1 0.4,-1.5 l 6.5,-6.6 c 3.7,-3.7 9.7,-3.7 13.4,0 3.7,3.7 3.7,9.7 0,13.4 l -6.6,6.5 c -0.3,0.3 -0.7,0.5 -1.1,0.5 z M 98,85.8 c 4,1.8 7.2,4.9 8.9,8.9 l 4.8,-4.8 c 1.6,-1.6 2.3,-3.9 1.8,-6.1 -0.6,-2.2 -2.3,-3.9 -4.5,-4.5 -2.2,-0.6 -4.6,0.1 -6.1,1.8 z"
   id="path34" />
	<path
   class="st0"
   d="m 93.3,108.8 c -3.5,0 -6.7,-1.9 -8.3,-4.9 -1.6,-3.1 -1.5,-6.8 0.4,-9.7 0.1,-0.2 0.3,-0.3 0.4,-0.4 2.9,-1.9 6.6,-2.1 9.7,-0.4 3.1,1.6 4.9,4.8 4.9,8.3 0,1.8 -0.6,3.6 -1.6,5.2 -0.1,0.2 -0.3,0.3 -0.4,0.4 -1.4,1 -3.2,1.5 -5.1,1.5 z M 87.9,96.2 c -1.4,2.5 -1.1,5.6 1,7.6 2,2 5.2,2.4 7.6,1 0.6,-1 0.9,-2.1 0.9,-3.2 0,-2.3 -1.2,-4.4 -3.2,-5.5 -2,-1.1 -4.4,-1 -6.3,0.1 z"
   id="path36" />
	<path
   class="st0"
   d="m 106.3,99.1 c -0.1,0 -0.2,0 -0.4,-0.1 -0.6,-0.1 -0.9,-0.6 -1.1,-1.1 -1.3,-4.9 -5.1,-8.7 -10,-10 -0.6,-0.1 -0.9,-0.6 -1.1,-1.1 -0.1,-0.6 0,-1.1 0.4,-1.5 l 6.5,-6.6 c 3.7,-3.7 9.7,-3.7 13.4,0 3.7,3.7 3.7,9.7 0,13.4 l -6.6,6.5 c -0.3,0.3 -0.7,0.5 -1.1,0.5 z M 98,85.8 c 4,1.8 7.2,4.9 8.9,8.9 l 4.8,-4.8 c 1.6,-1.6 2.3,-3.9 1.8,-6.1 -0.6,-2.2 -2.3,-3.9 -4.5,-4.5 -2.2,-0.6 -4.6,0.1 -6.1,1.8 z"
   id="path38" />
	<path
   class="st0"
   d="m 77.1,132.9 c -7,0 -13.3,-4.2 -16,-10.7 -2.7,-6.4 -1.2,-13.9 3.8,-18.9 L 78.8,89.4 c 0.4,-0.4 0.9,-0.8 1.3,-1.2 0.6,-0.5 1.5,-0.4 2.1,0.1 0.6,0.6 0.6,1.4 0.1,2.1 -2.9,3.6 -3.9,8.3 -2.7,12.6 0.1,0.6 0,1.1 -0.4,1.5 l -6.6,6.6 c -2.4,2.5 -2.3,6.4 0.1,8.8 2.4,2.4 6.4,2.5 8.8,0.1 l 13.9,-13.9 c 0.3,-0.3 0.6,-0.6 0.8,-1 0.7,-1.1 1,-2.3 1.1,-3.5 0,-2.3 -1.3,-4.4 -3.3,-5.6 -2.1,-1.1 -4.5,-1 -6.4,0.3 -0.6,0.4 -1.4,0.3 -1.9,-0.2 -0.5,-0.5 -0.6,-1.3 -0.2,-1.9 0.4,-0.6 0.8,-1.1 1.2,-1.5 L 94,85.3 c 0.4,-0.4 0.9,-0.6 1.5,-0.4 5.7,1.5 10.2,5.8 12,11.4 1.8,5.6 0.7,11.7 -3.1,16.3 v 0.1 c -0.4,0.4 -0.7,0.9 -1.1,1.3 l -14,13.9 c -3.2,3.2 -7.5,5 -12.2,5 z m -0.8,-36.5 -9.2,9.1 c -5.4,5.6 -5.4,14.4 0.1,19.9 5.5,5.5 14.4,5.6 19.9,0.1 L 101,111.6 c 0.3,-0.3 0.6,-0.7 0.9,-1.1 l 0.1,-0.1 c 2.9,-3.6 3.9,-8.4 2.6,-12.9 -1.3,-4.4 -4.7,-8 -9.1,-9.5 l -4,4.1 c 3.4,0.2 6.4,2.1 7.9,5.1 1.5,3 1.3,6.6 -0.6,9.4 -0.4,0.6 -0.7,1.1 -1.2,1.5 L 83.7,122 c -3.7,3.7 -9.7,3.7 -13.4,0 -3.7,-3.7 -3.7,-9.7 0,-13.4 l 5.9,-5.9 c -0.2,-1.9 -0.3,-4.1 0.1,-6.3 z"
   id="path40" />
	<path
   class="st0"
   d="m 93.3,108.8 c -3.5,0 -6.7,-1.9 -8.3,-4.9 -1.6,-3.1 -1.5,-6.8 0.4,-9.7 0.1,-0.2 0.3,-0.3 0.4,-0.4 3.8,-2.4 8.7,-1.9 11.9,1.2 3.2,3.2 3.7,8.1 1.2,11.9 -0.1,0.2 -0.3,0.3 -0.4,0.4 -1.5,1 -3.3,1.5 -5.2,1.5 z M 87.9,96.2 c -1.4,2.5 -1.1,5.6 1,7.6 2,2 5.2,2.4 7.6,1 0.6,-1 0.9,-2.1 0.9,-3.2 0,-2.3 -1.2,-4.3 -3.2,-5.4 -1.9,-1.1 -4.4,-1.1 -6.3,0 z"
   id="path42" />
	<path
   class="st0"
   d="m 77.1,125 c -3.8,0 -7.3,-2.3 -8.7,-5.8 -1.4,-3.5 -0.6,-7.6 2.1,-10.3 l 6.5,-6.5 c 0.4,-0.4 1,-0.6 1.5,-0.4 0.6,0.1 0.9,0.6 1.1,1.1 1.3,4.9 5.1,8.7 10,10 0.6,0.1 0.9,0.6 1.1,1.1 0.1,0.6 0,1.1 -0.4,1.5 l -6.5,6.5 c -1.7,1.8 -4.2,2.8 -6.7,2.8 z m 0.4,-18.7 -4.8,4.8 c -2.4,2.5 -2.3,6.4 0.1,8.8 2.4,2.4 6.4,2.5 8.8,0.1 l 4.8,-4.8 c -4,-1.7 -7.2,-4.9 -8.9,-8.9 z"
   id="path44" />
	<path
   class="st0"
   d="m 93.3,108.8 c -3.5,0 -6.7,-1.9 -8.3,-4.9 -1.6,-3.1 -1.5,-6.8 0.4,-9.7 0.1,-0.2 0.3,-0.3 0.4,-0.4 3.8,-2.4 8.7,-1.9 11.9,1.2 3.2,3.2 3.7,8.1 1.2,11.9 -0.1,0.2 -0.3,0.3 -0.4,0.4 -1.5,1 -3.3,1.5 -5.2,1.5 z M 87.9,96.2 c -1.4,2.5 -1.1,5.6 1,7.6 2,2 5.2,2.4 7.6,1 0.6,-1 0.9,-2.1 0.9,-3.2 0,-2.3 -1.2,-4.3 -3.2,-5.4 -1.9,-1.1 -4.4,-1.1 -6.3,0 z"
   id="path46" />
	<path
   class="st0"
   d="m 77.1,125 c -3.8,0 -7.3,-2.3 -8.7,-5.8 -1.4,-3.5 -0.6,-7.6 2.1,-10.3 l 6.5,-6.5 c 0.4,-0.4 1,-0.6 1.5,-0.4 0.6,0.1 0.9,0.6 1.1,1.1 1.3,4.9 5.1,8.7 10,10 0.6,0.1 0.9,0.6 1.1,1.1 0.1,0.6 0,1.1 -0.4,1.5 l -6.5,6.5 c -1.7,1.8 -4.2,2.8 -6.7,2.8 z m 0.4,-18.7 -4.8,4.8 c -2.4,2.5 -2.3,6.4 0.1,8.8 2.4,2.4 6.4,2.5 8.8,0.1 l 4.8,-4.8 c -4,-1.7 -7.2,-4.9 -8.9,-8.9 z"
   id="path48" />
</g>
</svg>
