<?xml version="1.0" encoding="iso-8859-1"?>
<!-- Generator: Adobe Illustrator 19.0.0, SVG Export Plug-In . SVG Version: 6.00 Build 0)  -->
<svg version="1.1" id="Capa_1" xmlns="http://www.w3.org/2000/svg" xmlns:xlink="http://www.w3.org/1999/xlink" x="0px" y="0px"
	 viewBox="0 0 51.052 51.052" style="enable-background:new 0 0 51.052 51.052;" xml:space="preserve">
<path style="fill:#556080;" d="M41.026,22.052h-4V15.5c0-6.341-5.159-11.5-11.5-11.5s-11.5,5.159-11.5,11.5v6.552h-4V15.5
	c0-8.547,6.953-15.5,15.5-15.5s15.5,6.953,15.5,15.5V22.052z"/>
<path style="fill:#97A5AF;" d="M38.026,51.052h-25c-3.866,0-7-3.134-7-7v-22h39v22C45.026,47.918,41.892,51.052,38.026,51.052z"/>
<path style="fill:#ABBCC6;" d="M13.026,51.052h12v-29h-19v22C6.026,47.918,9.16,51.052,13.026,51.052z"/>
<path style="fill:#8697CB;" d="M38.026,51.052h-25c-3.866,0-7-3.134-7-7v0h39v0C45.026,47.918,41.892,51.052,38.026,51.052z"/>
<rect x="32.026" y="27.052" style="fill:#556080;" width="5" height="12"/>
<rect x="23.026" y="27.052" style="fill:#556080;" width="5" height="12"/>
<rect x="14.026" y="27.052" style="fill:#556080;" width="5" height="12"/>
<rect x="15.026" y="28.052" style="fill:#313847;" width="3" height="2"/>
<rect x="15.026" y="32.052" style="fill:#313847;" width="3" height="2"/>
<rect x="15.026" y="36.052" style="fill:#8697CB;" width="3" height="2"/>
<rect x="24.026" y="28.052" style="fill:#313847;" width="3" height="2"/>
<rect x="24.026" y="32.052" style="fill:#8697CB;" width="3" height="2"/>
<rect x="24.026" y="36.052" style="fill:#313847;" width="3" height="2"/>
<rect x="33.026" y="28.052" style="fill:#313847;" width="3" height="2"/>
<rect x="33.026" y="32.052" style="fill:#313847;" width="3" height="2"/>
<rect x="33.026" y="36.052" style="fill:#8697CB;" width="3" height="2"/>
<path style="fill:#99ADE0;" d="M6.026,44.052c0,3.866,3.134,7,7,7h12v-7H6.026z"/>
<g>
</g>
<g>
</g>
<g>
</g>
<g>
</g>
<g>
</g>
<g>
</g>
<g>
</g>
<g>
</g>
<g>
</g>
<g>
</g>
<g>
</g>
<g>
</g>
<g>
</g>
<g>
</g>
<g>
</g>
</svg>
