<svg width="61" height="60" viewBox="0 0 61 60" fill="none" xmlns="http://www.w3.org/2000/svg">
<path d="M30.4997 56.2545C44.9996 56.2545 56.7542 44.4999 56.7542 29.9999C56.7542 15.4999 44.9996 3.74536 30.4997 3.74536C15.9997 3.74536 4.24512 15.4999 4.24512 29.9999C4.24512 44.4999 15.9997 56.2545 30.4997 56.2545Z" fill="#EBECE9"/>
<path d="M30.5005 3.74536C22.4278 3.74536 14.7914 7.49082 9.80957 13.8545C20.2096 3.78172 36.8278 4.03627 46.9005 14.4726C56.0278 23.8908 56.7914 38.5817 48.7187 48.909C59.155 38.8726 59.4823 22.2544 49.4096 11.8181C44.4641 6.61809 37.6278 3.74536 30.5005 3.74536Z" fill="#C1C1C1"/>
<path d="M30.4998 7.49091C30.2453 7.49091 30.0635 7.30909 30.0635 7.05454V0.436364C30.0635 0.181818 30.2453 0 30.4998 0C30.7544 0 30.9362 0.181818 30.9362 0.436364V7.05454C30.9362 7.27273 30.7544 7.49091 30.4998 7.49091Z" fill="#244583"/>
<path d="M30.4998 59.9999C30.2453 59.9999 30.0635 59.8181 30.0635 59.5636V52.9454C30.0635 52.6909 30.2453 52.509 30.4998 52.509C30.7544 52.509 30.9362 52.6909 30.9362 52.9454V59.5636C30.9362 59.8181 30.7544 59.9999 30.4998 59.9999Z" fill="#244583"/>
<path d="M60.0633 30.4364H53.4452C53.1906 30.4364 53.0088 30.2546 53.0088 30.0001C53.0088 29.7455 53.1906 29.5637 53.4452 29.5637H60.0633C60.3179 29.5637 60.4997 29.7455 60.4997 30.0001C60.4997 30.2546 60.3179 30.4364 60.0633 30.4364Z" fill="#244583"/>
<path d="M7.55455 30.4364H0.936364C0.681818 30.4364 0.5 30.2546 0.5 30.0001C0.5 29.7455 0.681818 29.5637 0.936364 29.5637H7.55455C7.80909 29.5637 7.99091 29.7455 7.99091 30.0001C7.99091 30.2546 7.77273 30.4364 7.55455 30.4364Z" fill="#244583"/>
<path d="M30.5005 56.6909C15.7732 56.6909 3.80957 44.7273 3.80957 30C3.80957 15.2727 15.7732 3.30908 30.5005 3.30908C45.2277 3.30908 57.1914 15.2727 57.1914 30C57.1914 44.7273 45.2277 56.6909 30.5005 56.6909ZM30.5005 4.18181C16.2459 4.18181 4.6823 15.7454 4.6823 30C4.6823 44.2545 16.2459 55.8182 30.5005 55.8182C44.755 55.8182 56.3187 44.2545 56.3187 30C56.3187 15.7454 44.755 4.18181 30.5005 4.18181Z" fill="#244583"/>
<path d="M23.9317 20.8887C24.6795 20.249 24.8096 19.1737 24.2222 18.4868C23.6348 17.8 22.5523 17.7617 21.8044 18.4014C21.0565 19.041 20.9264 20.1164 21.5138 20.8032C22.1013 21.49 23.1838 21.5283 23.9317 20.8887Z" fill="#EEEFEE"/>
<path d="M43.1541 56.3635C42.8996 56.3635 42.7178 56.1817 42.7178 55.9272C42.7178 55.7453 42.8269 55.5999 42.9723 55.5271C46.3905 53.8544 49.4451 51.4908 51.9541 48.6181C52.0996 48.4362 52.3905 48.3999 52.5723 48.5817C52.7541 48.7272 52.7905 49.0181 52.6087 49.1999C50.0269 52.1817 46.8632 54.6181 43.336 56.3271C43.2632 56.3635 43.1905 56.3635 43.1541 56.3635Z" fill="#244583"/>
<path d="M37.6268 58.3635C37.3722 58.3635 37.1904 58.1817 37.1904 57.9272C37.1904 57.7454 37.3359 57.5635 37.5177 57.4908C38.6086 57.1999 39.6995 56.8726 40.7904 56.4726C41.0086 56.3999 41.2632 56.509 41.3359 56.7272C41.4086 56.9454 41.2995 57.1999 41.0813 57.2726C39.9904 57.709 38.8632 58.0363 37.6995 58.3272C37.6995 58.3635 37.6632 58.3635 37.6268 58.3635Z" fill="#244583"/>
<path d="M3.15414 21.1636C2.89959 21.1636 2.71777 20.9818 2.71777 20.7273C2.71777 20.6909 2.71777 20.6182 2.75414 20.5818C4.3905 15.8182 7.22686 11.5273 11.0087 8.14545C11.1905 8 11.445 8 11.6269 8.18182C11.7723 8.36363 11.7723 8.61818 11.5905 8.8C7.91777 12.0727 5.1905 16.2182 3.5905 20.8727C3.51777 21.0545 3.37232 21.1636 3.15414 21.1636Z" fill="#244583"/>
<path d="M14.4276 6.47283C14.173 6.47283 13.9912 6.29102 13.9912 6.03647C13.9912 5.89102 14.0639 5.74556 14.173 5.67283C14.8276 5.23647 15.5185 4.80011 16.3912 4.32738C16.6094 4.21829 16.8639 4.29102 16.973 4.47283C17.0821 4.69102 17.0094 4.94556 16.8276 5.05465C15.9912 5.49102 15.3003 5.92738 14.6821 6.36374C14.573 6.43647 14.5003 6.47283 14.4276 6.47283Z" fill="#244583"/>
<path d="M21.5177 51.3455C21.445 51.3455 21.3359 51.3455 21.2632 51.3091C20.3904 50.9091 19.5177 50.4728 18.6813 49.9637C18.3904 49.7819 18.3177 49.4182 18.4995 49.1273C18.6813 48.8728 19.045 48.7637 19.2995 48.9091C20.0995 49.3819 20.8995 49.8182 21.7359 50.1819C22.0268 50.3273 22.1722 50.691 22.0632 50.9819C21.9904 51.2001 21.7722 51.3455 21.5177 51.3455Z" fill="white"/>
<path d="M16.9728 48.6544C16.8274 48.6544 16.7183 48.6181 16.6092 48.5454C13.3365 46.0726 10.791 42.7272 9.26376 38.9453C9.15467 38.6181 9.30012 38.2908 9.59103 38.1454C9.9183 38.0363 10.2456 38.1817 10.391 38.4726C11.8456 42.0726 14.2456 45.1999 17.3728 47.5635C17.6274 47.7817 17.7001 48.1454 17.4819 48.3999C17.3365 48.5817 17.1547 48.6544 16.9728 48.6544Z" fill="white"/>
<path d="M22.9722 27.8909C21.8813 27.8909 21.0449 28.7636 21.0449 29.8181V39.7454C21.0449 42 22.8995 43.8545 25.154 43.8545H35.5177C37.7722 43.8545 39.6267 42 39.6267 39.7454V29.8181C39.6267 28.7272 38.754 27.8909 37.6995 27.8909H22.9722Z" fill="#9FEFDE"/>
<path d="M37.9177 27.8909H36.2813C37.2268 27.8909 37.9904 28.7636 37.9904 29.8181V39.7454C37.9904 42 36.3904 43.8545 34.4268 43.8545H36.0631C38.0268 43.8545 39.6268 42 39.6268 39.7454V29.8181C39.5904 28.7636 38.8631 27.8909 37.9177 27.8909Z" fill="#24C4A1"/>
<path d="M35.5179 44.5091H25.1543C22.5361 44.5091 20.3906 42.3636 20.3906 39.7454V29.8181C20.3906 28.4 21.5543 27.2363 22.9724 27.2363H37.6633C39.0815 27.2363 40.2452 28.4 40.2452 29.8181V39.7454C40.2815 42.4 38.1361 44.5091 35.5179 44.5091ZM23.0088 28.1091C22.0634 28.1091 21.2997 28.8727 21.2997 29.8181V39.7454C21.2997 41.8909 23.0452 43.6363 25.1906 43.6363H35.5543C37.6997 43.6363 39.4452 41.8909 39.4452 39.7454V29.8181C39.4452 28.8727 38.6815 28.1091 37.7361 28.1091H23.0088Z" fill="#244583"/>
<path d="M36.6085 28.109C36.354 28.109 36.1722 27.9272 36.1722 27.6726V23.1272C36.1722 19.9272 33.554 17.309 30.354 17.309C27.154 17.309 24.5358 19.9272 24.5358 23.1272V27.6726C24.5358 27.9272 24.354 28.109 24.0994 28.109C23.8449 28.109 23.6631 27.9272 23.6631 27.6726V23.1272C23.6631 19.4181 26.6813 16.4363 30.354 16.4363C34.0267 16.4363 37.0449 19.4545 37.0449 23.1272V27.6726C37.0449 27.9272 36.8267 28.109 36.6085 28.109Z" fill="#244583"/>
<path d="M31.6266 35.9997V39.3452C31.6266 39.6361 31.4085 39.8906 31.1176 39.8906H29.5903C29.2994 39.8906 29.0812 39.6725 29.0812 39.3452V35.9997C28.4994 35.5997 28.1357 34.9452 28.1357 34.1815C28.1357 32.9452 29.1176 31.927 30.3539 31.927C31.5539 31.927 32.5721 32.9452 32.5721 34.1815C32.5357 34.9452 32.1721 35.5997 31.6266 35.9997Z" fill="#E9ECEF"/>
<path d="M31.0816 40.2544H29.5906C29.1179 40.2544 28.7179 39.8544 28.7179 39.3453V36.1817C28.1361 35.7089 27.7725 34.9453 27.7725 34.1817C27.7725 32.7271 28.9361 31.5635 30.3543 31.5635C31.7725 31.5635 32.9361 32.7271 32.9361 34.1817C32.9361 34.9453 32.6088 35.7089 31.9906 36.218V39.3817C31.9906 39.8544 31.5906 40.2544 31.0816 40.2544ZM30.3543 32.2907C29.3361 32.2907 28.4997 33.1271 28.4997 34.1817C28.4997 34.7998 28.7906 35.3817 29.2634 35.7453L29.4088 35.8544V39.3817C29.4088 39.4544 29.4816 39.5635 29.5543 39.5635H31.0816C31.1543 39.5635 31.227 39.4908 31.227 39.3817V35.8544L31.3725 35.7453C31.8452 35.3817 32.1361 34.7998 32.1361 34.1817C32.1725 33.1271 31.3725 32.2907 30.3543 32.2907Z" fill="#244583"/>
</svg>
