<?xml version="1.0" encoding="utf-8"?>
<!-- Generator: Adobe Illustrator 22.1.0, SVG Export Plug-In . SVG Version: 6.00 Build 0)  -->
<svg version="1.1" id="Layer_1" xmlns="http://www.w3.org/2000/svg" xmlns:xlink="http://www.w3.org/1999/xlink" x="0px" y="0px"
	 viewBox="0 0 454.2184753 419.460907" style="enable-background:new 0 0 454.2184753 419.460907;" xml:space="preserve">
<style type="text/css">
	.st0{fill:#606A78;}
	.st1{fill:#5F6D8F;}
</style>
<polygon class="st0" points="114.039299,0 0,0 0,22.6308002 0,50.3335991 0,364.7553101 114.039299,364.7553101 
	114.039299,194.152298 238.4420929,351.0371094 238.4420929,300.7034912 238.4420929,207.2183075 238.4420929,156.8914032 "/>
<g>
	<path class="st0" d="M7.1742001,401.3388977C3.6492,399.5559082,1.8662,397.3995056,1.8662,394.6210022
		c0-3.441803,2.9025998-6.344696,7.1326003-6.344696c2.8612995,0,5.4736996,1.2857056,7.257,3.6495056l-3.4005003,3.441803
		c-1.2440996-1.2441101-2.4883003-2.0320129-3.8153-2.0320129c-1.1195998,0-1.9903002,0.4559937-1.9903002,1.3269958
		c0,0.8294067,0.7878003,1.2026062,1.9903002,1.8246155l2.0323,1.0367737
		c3.6492004,1.8662109,5.5981998,3.7736206,5.5981998,7.0497131c0,3.9396973-3.1103001,6.883606-7.9207001,6.883606
		c-3.1927996,0-5.8055997-1.2857056-7.7129998-3.7733154l3.4005003-3.7323914
		c1.2853999,1.493103,3.1515999,2.5708008,4.6026998,2.5708008c1.3685999,0,2.4467001-0.7878113,2.4467001-1.7829895
		c0-0.9535217-0.9123001-1.6588135-2.4467001-2.4466248L7.1742001,401.3388977z"/>
	<path class="st0" d="M40.3773956,410.8768005h-5.5152969v-10.6575012c0-4.2713013-0.8294029-6.8836975-3.8981018-6.8836975
		c-2.7368965,0-4.7272968,2.2392883-4.7272968,6.759491v10.7817078h-5.5153008v-22.0197144h5.5153008v2.5295105
		c1.8659-2.0319824,4.2712975-3.1102905,6.8836956-3.1102905c2.7372055,0,5.0593033,1.2857056,6.4276009,3.9396973
		c2.0319023-2.571106,4.0642014-3.9396973,7.3815002-3.9396973c2.446701,0,4.6446991,0.9954834,5.8885002,2.571106
		c1.4514999,1.824585,1.6175003,4.2298889,1.6175003,7.1325989v12.8967896h-5.5153008v-12.1502991
		c0-3.6079102-1.2856979-5.3908997-3.7739983-5.3908997c-2.7781029,0-4.7688026,2.1564026-4.7688026,6.6763V410.8768005z"/>
	<path class="st0" d="M75.7532959,408.5544128c-1.9489975,1.9076843-4.0222015,2.9028931-6.8006973,2.9028931
		c-5.5982018,0-10.4915009-4.8101196-10.4915009-11.569519c0-6.8839722,4.6442986-11.6114807,10.3669968-11.6114807
		c2.6539993,0,4.9348984,0.9954834,6.9252014,2.9857788v-2.4049988h5.5154037v22.0197144h-5.5154037V408.5544128z
		 M64.0177002,399.8461914c0,3.7738953,2.4881973,6.5520935,5.9300995,6.5520935
		c3.4004974,0,6.0544968-2.5707703,6.0544968-6.593689c0-3.8565979-2.5710983-6.4689941-6.0544968-6.4689941
		C66.2985992,393.3356018,64.0177002,396.2383118,64.0177002,399.8461914z"/>
	<path class="st0" d="M90.7435989,391.6351929c1.0363998-2.2805786,2.8196945-3.3588867,4.6442947-3.3588867
		c1.1612015,0,1.8662033,0.3317871,2.4054031,0.58078l-1.7005005,4.7272034
		c-0.4147034-0.2073975-1.0366974-0.4559937-1.6171951-0.4559937c-1.5756073,0-2.8197021,1.8246155-2.9442062,5.0589905
		c-0.0415955,1.2029114-0.0415955,2.571106-0.0415955,3.7740173v8.9154968h-5.5154037v-22.0197144h4.7692032V391.6351929z"/>
	<path class="st0" d="M102.063797,380.7290039h5.5153961v8.1280823h3.2761002v4.7272034h-3.2761002v17.292511h-5.5153961v-17.292511
		h-2.8197021v-4.7272034h2.8197021V380.7290039z"/>
	<path class="st0" d="M146.7663879,406.8546143c-2.3636932,3.0686951-5.6810913,4.6026917-9.9938965,4.6026917
		c-7.5059967,0-12.3576965-5.1006165-12.3576965-11.5283203c0-6.5933838,5.1423035-11.6526794,12.4405975-11.6526794
		c4.3128052,0,7.9620056,1.7832947,10.1600037,5.0177002l-4.6031036,2.5296021
		c-1.5758972-1.6585083-3.1102905-2.4880066-5.5153046-2.4880066c-4.2299957,0-6.9255981,2.8613892-6.9255981,6.6763
		c0,3.7323914,2.6128082,6.3863831,6.6766052,6.3863831c2.446701,0,4.3957062-0.8293762,5.7642975-2.5298767
		L146.7663879,406.8546143z"/>
	<path class="st0" d="M150.5894928,380.355896h5.5153046v30.5209045h-5.5153046V380.355896z"/>
	<path class="st0" d="M183.0217896,399.8461914c0,6.386322-4.9348907,11.6111145-11.6526947,11.6111145
		c-6.3863983,0-11.4454041-5.1006165-11.4454041-11.569519c0-6.6765747,5.3908081-11.6114807,11.4038086-11.6114807
		C177.7550964,388.2763062,183.0217896,393.3356018,183.0217896,399.8461914z M165.4803009,399.8461914
		c0,3.7322998,2.3636932,6.386322,5.9299927,6.386322c3.4006042,0,6.0545959-2.4882202,6.0545959-6.3447266
		c0-3.7323914-2.446701-6.3863831-6.0545959-6.3863831C167.9684906,393.5014038,165.4803009,396.196991,165.4803009,399.8461914z"/>
	<path class="st0" d="M186.8946075,388.8570862h5.5152893v11.4866028c0,3.9394226,1.2442017,6.0130005,4.1470947,6.0130005
		c2.9441986,0,4.1468048-2.0319824,4.1468048-5.7639771v-11.7356262h5.5152893v10.1596069
		c0,4.0639038-0.2489929,7.0501099-2.5710907,9.6209106c-1.7416992,1.9487-4.0223083,2.7781067-7.0910034,2.7781067
		c-5.3079987,0-8.5839996-2.6949158-9.4550934-7.8372192c-0.2902069-1.7835999-0.2072906-2.8200989-0.2072906-4.6445923V388.8570862
		z"/>
	<path class="st0" d="M227.5001984,408.5544128c-1.9491119,1.9076843-4.0223083,2.9028931-6.8008118,2.9028931
		c-5.5981903,0-10.4915009-4.8101196-10.4915009-11.569519c0-6.8839722,4.6443024-11.6114807,10.3670044-11.6114807
		c2.654007,0,4.934906,0.9954834,6.9253082,2.9857788v-10.906189h5.5152893v30.5209045h-5.5152893V408.5544128z
		 M215.7644958,399.8461914c0,3.7738953,2.4882965,6.5520935,5.9300995,6.5520935
		c3.4004974,0,6.0545044-2.5707703,6.0545044-6.593689c0-3.8565979-2.571106-6.4689941-6.0545044-6.4689941
		C218.0453949,393.3356018,215.7644958,396.2383118,215.7644958,399.8461914z"/>
	<path class="st0" d="M255.697998,391.262085c1.9902954-1.9902954,4.2711792-2.9857788,6.9252014-2.9857788
		c5.6810913,0,10.4085999,4.7275085,10.4085999,11.6114807c0,6.7593994-4.9348145,11.569519-10.5331116,11.569519
		c-2.7783813,0-4.8103943-0.9952087-6.8006897-2.9028931v10.3675842h-5.5153961v-30.0649109h5.5153961V391.262085z
		 M255.4489899,399.8045959c0,3.9812927,2.654007,6.593689,6.0546112,6.593689c3.441803,0,5.971283-2.7781982,5.971283-6.5520935
		c0-3.6078796-2.3222046-6.5105896-5.971283-6.5105896C257.9786072,393.3356018,255.4489899,395.947998,255.4489899,399.8045959z"/>
	<path class="st0" d="M293.3921814,408.5544128c-1.9490967,1.9076843-4.0222778,2.9028931-6.8007812,2.9028931
		c-5.5982056,0-10.4915161-4.8101196-10.4915161-11.569519c0-6.8839722,4.6443176-11.6114807,10.3670044-11.6114807
		c2.6539917,0,4.934906,0.9954834,6.925293,2.9857788v-2.4049988h5.5153198v22.0197144h-5.5153198V408.5544128z
		 M281.6564941,399.8461914c0,3.7738953,2.4883118,6.5520935,5.9301147,6.5520935
		c3.4004822,0,6.0544739-2.5707703,6.0544739-6.593689c0-3.8565979-2.571106-6.4689941-6.0544739-6.4689941
		C283.9373779,393.3356018,281.6564941,396.2383118,281.6564941,399.8461914z"/>
	<path class="st0" d="M308.3823853,391.6351929c1.0364075-2.2805786,2.8197021-3.3588867,4.6443176-3.3588867
		c1.1612854,0,1.8661804,0.3317871,2.4053955,0.58078l-1.7004089,4.7272034
		c-0.4147034-0.2073975-1.0368042-0.4559937-1.6173096-0.4559937c-1.575592,0-2.8197021,1.8246155-2.9441833,5.0589905
		c-0.0415955,1.2029114-0.0415955,2.571106-0.0415955,3.7740173v8.9154968h-5.5153198v-22.0197144h4.769104V391.6351929z"/>
	<path class="st0" d="M319.7026978,380.7290039h5.5152893v8.1280823h3.2760925v4.7272034h-3.2760925v17.292511h-5.5152893
		v-17.292511h-2.8197937v-4.7272034h2.8197937V380.7290039z"/>
	<path class="st0" d="M337.1853943,391.0963135c2.1148071-1.7833252,4.0639038-2.8200073,6.510498-2.8200073
		c4.1054993,0,7.5473022,2.8200073,7.5473022,7.5473022v15.0531921h-5.5154114v-10.4085999
		c0-4.3540955-0.3731079-7.1325989-3.7319946-7.1325989c-1.5343933,0-2.8613892,0.7466125-3.7323914,2.1148071
		c-1.1195984,1.7833862-1.0780029,3.7736816-1.0780029,6.0545959v9.3717957h-5.5154114v-22.0197144h5.5154114V391.0963135z"/>
	<path class="st0" d="M376.7827759,406.6055908c-2.3633728,3.3586121-5.4737854,4.8517151-10.1180725,4.8517151
		c-7.0084229,0-11.5283203-5.1422119-11.5283203-11.6111145c0-6.0130005,4.3540955-11.5698853,11.4450989-11.5698853
		c6.9667969,0,11.694397,4.9765015,11.694397,11.9429932c0,0.4978943-0.0415955,0.7464905-0.0415955,1.2441101h-17.7485962
		c0.5392151,3.276001,3.0270996,5.1005859,6.1790161,5.1005859c2.3634949,0,3.9393921-0.6636047,5.4737854-2.1560974
		L376.7827759,406.6055908z M372.7189026,397.109314c-0.7462158-2.571106-3.1100159-4.1468201-6.0541992-4.1468201
		c-2.7372131,0-4.8520203,1.3683167-5.9300232,4.1468201H372.7189026z"/>
	<path class="st0" d="M386.4120789,391.6351929c1.0367126-2.2805786,2.8197021-3.3588867,4.6443176-3.3588867
		c1.1611938,0,1.8662109,0.3317871,2.4053955,0.58078l-1.7005005,4.7272034
		c-0.4147034-0.2073975-1.0366821-0.4559937-1.617218-0.4559937c-1.575592,0-2.8196716,1.8246155-2.9441833,5.0589905
		c-0.0415955,1.2029114-0.0415955,2.571106-0.0415955,3.7740173v8.9154968h-5.5154114v-22.0197144h4.7691956V391.6351929z"/>
	<path class="st0" d="M401.9164734,383.4245911c0,1.9490051-1.5759888,3.5247192-3.5249939,3.5247192
		c-2.0319824,0-3.5246887-1.78302-3.5246887-3.8149109c0-1.9078064,1.6171875-3.3590088,3.5246887-3.3590088
		C400.3820801,379.7753906,401.9164734,381.4338989,401.9164734,383.4245911z M395.6546021,388.8570862h5.5152893v22.0197144
		h-5.5152893V388.8570862z"/>
	<path class="st0" d="M411.6737976,391.0963135c2.1148071-1.7833252,4.0639038-2.8200073,6.510498-2.8200073
		c4.1054993,0,7.5473022,2.8200073,7.5473022,7.5473022v15.0531921h-5.5154114v-10.4085999
		c0-4.3540955-0.3731079-7.1325989-3.7319946-7.1325989c-1.5343933,0-2.8613892,0.7466125-3.7323914,2.1148071
		c-1.1195984,1.7833862-1.0780029,3.7736816-1.0780029,6.0545959v9.3717957h-5.5154114v-22.0197144h5.5154114V391.0963135z"/>
	<path class="st0" d="M452.4944763,407.7249146c0,4.2718811-0.8293762,7.1332703-3.3588867,9.2893982
		c-1.9904175,1.658783-4.6444092,2.4465942-8.0036011,2.4465942c-6.0541992,0-9.9107056-2.3634033-11.4038086-6.9667969h6.0957947
		c1.1196289,1.327301,2.7785034,1.9077759,5.1006165,1.9077759c2.0322876,0,3.6907959-0.5394897,4.6863098-1.4514771
		c1.3269958-1.2441101,1.3682861-2.7372131,1.3682861-4.8108215c-1.824585,1.7837219-3.8153076,2.7372131-6.6763,2.7372131
		c-5.9301147,0-10.574707-4.7275085-10.574707-11.3208923c0-6.8007202,4.6859131-11.2796021,10.2841187-11.2796021
		c2.7371826,0,4.8933105,1.0366821,6.9668884,2.9857788v-2.4049988h5.5152893V407.7249146z M435.2850952,399.5971985
		c0,3.6492004,2.6123962,6.2206116,6.0541992,6.2206116c3.4006042,0,5.9300842-2.4466248,5.9300842-6.1790161
		c0-3.5662842-2.3637695-6.3031921-6.0128784-6.3031921C437.6072998,393.3356018,435.2850952,396.196991,435.2850952,399.5971985z"
		/>
</g>
<g>
	<path class="st0" d="M383.2489014,364.7553101v-12.6488953l45.5749817-29.739624h-45.5749817v-13.2283936h69.3279724v12.745697
		l-45.4783936,29.6427917h45.4783936v13.2284241H383.2489014z"/>
	<path class="st0" d="M383.2489014,278.3756104v-13.3249207l69.3279724-26.7463837v13.7110901l-14.2904968,5.4070892v28.2914124
		l14.2904968,5.6967163v13.7113953L383.2489014,278.3756104z M401.5948792,271.6164856l23.7530212,9.1729126V262.443512
		L401.5948792,271.6164856z"/>
	<path class="st0" d="M383.2489014,253.6351929v-13.6144867l49.2442932-17.3803101l-49.2442932-17.7664948v-13.5178986
		l69.3279724,25.008194v12.6492004L383.2489014,253.6351929z"/>
	<path class="st0" d="M383.2489014,185.1291962v-37.8504944h12.9384766v24.6221008h12.359314v-24.6221008h12.9389038v24.6221008
		h18.1524963v-24.6221008h12.9387817v37.8504944H383.2489014z"/>
	<path class="st0" d="M383.2489014,133.7684937v-13.2283936h46.9266968c7.5315857,0,11.3936768-3.6693039,11.3936768-10.0419998
		c0-3.7655029-1.5447998-7.1453018-4.1519775-8.786499c-2.2207031-1.4486008-5.4071045-1.6416016-9.076416-1.6416016h-45.09198
		V86.8415985h44.126709c7.6278687,0,13.4214783,0.3863983,19.5042725,5.600502
		c5.1174927,4.4414978,7.3385925,10.2350006,7.3385925,17.7664032c0,7.1452942-2.0276794,12.8419952-6.5661011,17.187294
		c-5.7931824,5.6002045-12.0697021,6.3726959-21.0492859,6.3726959H383.2489014z"/>
	<path class="st0" d="M383.2489014,69.5587997V56.6199989l48.3751831-16.0282974l-48.3751831-16.2217007V11.6246004
		L452.5768738-0.059v12.7456999l-43.8370972,7.4348993l43.8370972,14.7730999v11.5867996l-43.8370972,14.5804024
		l43.8370972,7.6278954v12.8419037L383.2489014,69.5587997z"/>
</g>
<polygon class="st1" points="320.3045959,133.2198944 320.3045959,88.8162994 274.9685974,88.8162994 274.9685974,44.4127007 
	320.3045959,44.4127007 320.3045959,0 251.6012878,0 251.6012878,364.7553101 365.6405945,364.7553101 365.6405945,133.2198944 "/>
<rect x="321.35849" y="45.4665985" class="st1" width="44.2821083" height="42.2957993"/>
</svg>
