<svg height="512" viewBox="0 0 64 64" width="512" xmlns="http://www.w3.org/2000/svg"><g id="insurance-document-report-security-protect"><path d="m56 27a11.984 11.984 0 0 1 -7.2-2.4l-4.8-3.6-4.8 3.6a1.429 1.429 0 0 1 -.2.14 11.953 11.953 0 0 1 -7 2.26h-5v17.78a11.682 11.682 0 0 0 .21 2.22 11.839 11.839 0 0 0 3.07 6 11.478 11.478 0 0 0 3.11 2.38l5.41 2.86 5.2 2.76 10.61-5.62a12 12 0 0 0 6.39-10.6v-17.78zm1 17.78a7.977 7.977 0 0 1 -4.26 7.07l-8.74 4.62-8.74-4.62a7.977 7.977 0 0 1 -4.26-7.07v-13.78h1a16.119 16.119 0 0 0 9.6-3.2l2.4-1.8 2.4 1.8a16.119 16.119 0 0 0 9.6 3.2h1z" fill="#bddbff"/><path d="m39 7v4h8v-4a4 4 0 0 0 -8 0z" fill="#bddbff"/><path d="m27 15h4v-4h-4v-4h-4v4h-4v4h4v4h4z" fill="#bddbff"/><path d="m7 61a4 4 0 0 0 4-4v-4h-8v4a4 4 0 0 0 4 4z" fill="#bddbff"/><g fill="#57a4ff"><path d="m39.707 40.293-1.414 1.414 4 4a1 1 0 0 0 1.414 0l9-9-1.414-1.414-8.293 8.293z"/><path d="m61 26h-5a11.044 11.044 0 0 1 -6.6-2.2l-4.8-3.6a.99.99 0 0 0 -1.2 0l-3.4 2.55v-10.75h7a1 1 0 0 0 1-1v-4a5 5 0 0 0 -5-5h-28a5 5 0 0 0 -5 5v45h-7a1 1 0 0 0 -1 1v4a5 5 0 0 0 5 5h28a4.953 4.953 0 0 0 4.24-2.39l4.29 2.27a.98.98 0 0 0 .94 0l10.61-5.62a12.952 12.952 0 0 0 6.92-11.48v-17.78a1 1 0 0 0 -1-1zm-21-19a3 3 0 0 1 6 0v3h-6zm-30 50a3 3 0 0 1 -6 0v-3h6zm25 3h-24.03a4.924 4.924 0 0 0 1.03-3v-50a3.009 3.009 0 0 1 3-3h24.03a4.924 4.924 0 0 0 -1.03 3v17.21a11.038 11.038 0 0 1 -6 1.79h-5a1 1 0 0 0 -1 1v1h-10v2h10v4h-10v2h10v4h-10v2h10v2.78c0 .41.03.82.06 1.22h-10.06v2h10.41a13.2 13.2 0 0 0 1.78 4h-12.19v2h13.84a12.816 12.816 0 0 0 3.08 2.26l4.56 2.42a2.987 2.987 0 0 1 -2.48 1.32zm25-15.22a10.987 10.987 0 0 1 -5.85 9.72l-10.15 5.37-10.15-5.37a10.987 10.987 0 0 1 -5.85-9.72v-16.78h4a13.056 13.056 0 0 0 7.8-2.6l4.2-3.15 4.2 3.15a13.056 13.056 0 0 0 7.8 2.6h4z"/><path d="m31 10h-3v-3a1 1 0 0 0 -1-1h-4a1 1 0 0 0 -1 1v3h-3a1 1 0 0 0 -1 1v4a1 1 0 0 0 1 1h3v3a1 1 0 0 0 1 1h4a1 1 0 0 0 1-1v-3h3a1 1 0 0 0 1-1v-4a1 1 0 0 0 -1-1zm-1 4h-3a1 1 0 0 0 -1 1v3h-2v-3a1 1 0 0 0 -1-1h-3v-2h3a1 1 0 0 0 1-1v-3h2v3a1 1 0 0 0 1 1h3z"/><path d="m47 27-2.4-1.8a1 1 0 0 0 -1.2 0l-2.4 1.8a15.091 15.091 0 0 1 -9 3h-1a1 1 0 0 0 -1 1v13.775a8.98 8.98 0 0 0 4.789 7.954l8.743 4.628a.994.994 0 0 0 .936 0l8.742-4.628a8.979 8.979 0 0 0 4.79-7.954v-13.775a1 1 0 0 0 -1-1h-1a15.086 15.086 0 0 1 -9-3zm9 17.775a6.986 6.986 0 0 1 -3.726 6.187l-8.274 4.38-8.275-4.38a6.987 6.987 0 0 1 -3.725-6.187v-12.775a17.1 17.1 0 0 0 10.2-3.4l1.8-1.35 1.8 1.35a17.107 17.107 0 0 0 10.2 3.4z"/><path d="m16 22h18v2h-18z"/></g></g></svg>