<svg id="Capa_1" enable-background="new 0 0 512 512" height="512" viewBox="0 0 512 512" width="512" xmlns="http://www.w3.org/2000/svg"><g><path d="m194.678 430.102h241.969c6.72 0 12.167-5.448 12.167-12.167v-336.037h-254.136z" fill="#e49542"/><path d="m423.467 81.898v348.204h13.18c6.72 0 12.167-5.448 12.167-12.167v-336.037z" fill="#e28424"/><path d="m194.678 430.102h-119.325c-6.72 0-12.167-5.448-12.167-12.167v-336.037h131.493v348.204z" fill="#eab14d"/><path d="m130.049 179.61c-.474.717-1.277 1.148-2.136 1.148h-125.352c-.943 0-1.81-.518-2.256-1.349s-.4-1.839.12-2.626l62.001-93.737c.474-.717 1.277-1.148 2.136-1.148h130.116z" fill="#f1cb86"/><path d="m259.308 179.61c.474.717 1.277 1.148 2.136 1.148h247.994c.943 0 1.81-.518 2.256-1.349s.4-1.839-.12-2.626l-62.001-93.737c-.474-.717-1.277-1.148-2.136-1.148h-252.759z" fill="#eab14d"/><path d="m355.029 430.102h-66.565v-43.165c0-1.415 1.147-2.561 2.561-2.561h61.442c1.415 0 2.561 1.147 2.561 2.561v43.165z" fill="#df6b57"/><path d="m336.214 384.376v45.726h18.815v-43.165c0-1.415-1.147-2.561-2.561-2.561z" fill="#dd544f"/><path d="m410.254 324.097-19.328-13.572c-2.687-1.887-6.269-1.887-8.956 0l-19.328 13.572c-3.523 2.473-4.373 7.333-1.9 10.855 2.474 3.523 7.333 4.375 10.855 1.9l7.057-4.955v21.858c0 4.304 3.489 7.793 7.793 7.793s7.793-3.489 7.793-7.793v-21.858l7.057 4.955c1.362.957 2.924 1.417 4.471 1.417 2.454 0 4.869-1.156 6.384-3.316 2.475-3.523 1.625-8.383-1.898-10.856z" fill="#e7ecf6"/><g><path d="m312.574 229.561h-73.872c-4.304 0-7.793-3.489-7.793-7.793s3.489-7.793 7.793-7.793h73.872c4.304 0 7.793 3.489 7.793 7.793s-3.489 7.793-7.793 7.793z" fill="#e7ecf6"/></g><g><path d="m283.667 260.395h-44.966c-4.304 0-7.793-3.489-7.793-7.793s3.489-7.793 7.793-7.793h44.966c4.304 0 7.793 3.489 7.793 7.793s-3.488 7.793-7.793 7.793z" fill="#e7ecf6"/></g></g></svg>