<?xml version="1.0" standalone="no"?>
<!DOCTYPE svg PUBLIC "-//W3C//DTD SVG 20010904//EN"
 "http://www.w3.org/TR/2001/REC-SVG-20010904/DTD/svg10.dtd">
<svg version="1.0" xmlns="http://www.w3.org/2000/svg"
 width="940.000000pt" height="940.000000pt" viewBox="0 0 940.000000 940.000000"
 preserveAspectRatio="xMidYMid meet">
<metadata>
Created by potrace 1.11, written by Peter Selinger 2001-2013
</metadata>
<g transform="translate(0.000000,940.000000) scale(0.100000,-0.100000)"
fill="#000000" stroke="none">
<path d="M4667 9384 c-1 -1 -81 -4 -177 -8 -96 -3 -191 -8 -210 -11 -19 -3
-60 -7 -90 -10 -69 -7 -379 -54 -402 -61 -10 -3 -30 -7 -45 -10 -16 -3 -84
-18 -153 -35 -69 -17 -132 -32 -140 -34 -70 -16 -346 -109 -480 -162 -1554
-618 -2667 -2017 -2909 -3658 -23 -151 -28 -193 -36 -295 -3 -41 -8 -97 -10
-125 -6 -64 -6 -472 0 -550 7 -108 16 -209 20 -245 3 -19 7 -55 10 -80 6 -60
24 -168 42 -263 8 -42 17 -89 19 -104 23 -127 122 -487 154 -558 5 -11 12 -31
16 -45 7 -26 94 -248 121 -310 101 -228 249 -499 384 -702 78 -119 233 -333
255 -353 6 -5 30 -35 55 -65 24 -30 48 -60 54 -66 5 -6 37 -41 69 -78 67 -76
311 -317 371 -367 22 -19 46 -39 53 -46 32 -30 256 -205 332 -260 492 -351
1000 -585 1600 -738 58 -15 116 -29 130 -31 26 -5 102 -19 180 -35 60 -12 242
-37 310 -43 109 -10 211 -18 268 -21 74 -5 432 -5 497 0 105 7 211 16 235 19
152 19 136 17 280 40 126 21 150 25 180 32 14 3 36 8 50 10 14 3 95 23 180 45
452 117 894 307 1285 554 477 302 810 597 1197 1063 53 64 194 260 261 362
320 492 541 1025 662 1599 14 68 28 140 31 160 3 20 7 47 10 61 2 14 7 43 9
64 3 22 7 51 10 65 2 14 7 58 11 96 3 39 8 84 10 100 21 197 21 697 -1 835 -2
14 -6 52 -10 85 -14 137 -20 181 -31 240 -2 10 -6 37 -9 60 -3 22 -8 47 -10
55 -2 8 -7 31 -10 50 -20 122 -127 508 -181 655 -140 377 -322 740 -524 1040
-53 80 -218 306 -229 315 -4 3 -26 30 -51 60 -67 83 -253 282 -365 391 -597
579 -1371 1001 -2185 1190 -74 17 -146 33 -160 35 -156 28 -321 51 -410 59
-36 4 -76 8 -90 10 -14 3 -97 7 -185 11 -225 8 -246 9 -248 8z m363 -218 c215
-20 408 -47 512 -71 35 -8 79 -17 98 -20 130 -22 401 -101 610 -177 473 -172
940 -445 1343 -786 113 -95 412 -391 498 -492 311 -365 573 -791 746 -1213 52
-127 128 -337 148 -412 8 -27 26 -93 40 -145 15 -52 29 -106 31 -120 3 -14 11
-50 19 -80 15 -64 27 -126 30 -155 1 -11 5 -32 8 -46 9 -34 27 -160 33 -229 3
-30 7 -60 9 -67 10 -29 20 -274 20 -468 0 -245 -7 -353 -36 -580 -14 -111 -21
-150 -55 -330 -12 -64 -70 -286 -100 -385 -100 -326 -245 -661 -402 -930 -48
-83 -226 -358 -259 -400 -39 -50 -218 -276 -223 -280 -3 -3 -23 -25 -44 -50
-266 -307 -670 -646 -1023 -859 -410 -246 -794 -408 -1239 -520 -177 -45 -295
-69 -424 -86 -25 -3 -56 -8 -70 -10 -14 -2 -47 -7 -75 -10 -27 -3 -66 -8 -85
-10 -191 -24 -813 -24 -910 0 -14 3 -32 6 -150 20 -79 10 -173 25 -271 46 -52
11 -104 21 -115 23 -57 11 -303 79 -394 109 -270 89 -664 267 -885 402 -82 49
-264 169 -345 226 -204 143 -582 488 -740 675 -36 42 -70 82 -75 88 -6 6 -44
54 -86 106 -312 393 -570 873 -728 1350 -34 102 -101 338 -116 409 -27 126
-48 239 -70 381 -2 14 -7 54 -10 90 -4 36 -9 73 -11 83 -24 125 -24 766 0 894
2 10 7 50 10 88 26 267 119 665 224 965 124 354 331 757 545 1060 182 259 272
365 527 621 478 478 983 800 1640 1042 264 98 643 192 890 221 19 2 55 7 80
10 88 12 126 16 245 22 66 4 121 8 123 9 5 4 449 -3 512 -9z"/>
<path d="M3840 8780 c-355 -76 -664 -182 -965 -330 -260 -128 -309 -160 -319
-212 -18 -90 93 -154 169 -98 25 19 272 144 357 180 262 116 466 182 748 245
194 43 217 51 235 79 45 68 7 147 -75 159 -14 2 -81 -8 -150 -23z"/>
<path d="M5333 8775 c-43 -43 -45 -91 -5 -135 24 -27 43 -33 172 -60 80 -17
152 -33 160 -35 8 -2 42 -11 75 -20 288 -77 597 -203 905 -370 50 -27 72 -34
95 -29 48 10 73 31 86 72 14 50 -5 92 -59 126 -46 28 -250 133 -347 177 -269
122 -650 243 -914 291 -116 21 -132 19 -168 -17z"/>
<path d="M4567 8324 c-1 -1 -56 -4 -122 -8 -66 -3 -145 -11 -175 -16 -30 -5
-77 -12 -105 -15 -344 -42 -748 -169 -1100 -347 -359 -181 -674 -411 -962
-704 -424 -431 -742 -979 -903 -1554 -26 -93 -76 -320 -85 -380 -3 -25 -8 -56
-10 -70 -2 -14 -6 -50 -10 -80 -3 -30 -8 -71 -10 -90 -17 -139 -23 -499 -11
-615 3 -27 8 -84 11 -125 3 -41 8 -82 10 -90 2 -8 7 -40 10 -70 4 -30 13 -85
21 -122 7 -37 16 -82 19 -100 10 -60 75 -298 106 -391 272 -808 804 -1478
1537 -1939 346 -218 869 -422 1212 -474 19 -3 42 -7 50 -9 29 -8 150 -25 305
-42 88 -10 575 -10 675 -1 174 17 350 47 550 92 64 15 258 76 365 116 1169
430 2042 1435 2300 2650 9 41 18 84 21 95 4 20 29 193 39 275 30 242 23 656
-15 890 -5 30 -12 71 -15 90 -26 166 -88 409 -149 587 -252 734 -753 1389
-1391 1819 -448 302 -957 505 -1450 580 -22 3 -42 7 -45 9 -3 2 -42 7 -85 10
-44 4 -82 9 -85 10 -15 9 -493 27 -503 19z m453 -218 c14 -2 50 -7 80 -10 30
-4 66 -9 80 -11 216 -34 393 -75 565 -131 1111 -362 1964 -1263 2259 -2384 51
-196 87 -393 103 -573 15 -161 7 -627 -11 -724 -7 -33 -16 -95 -22 -138 -3
-22 -12 -71 -20 -110 -8 -38 -17 -81 -20 -95 -8 -40 -85 -311 -101 -355 -8
-22 -24 -65 -35 -95 -12 -30 -34 -83 -49 -118 -16 -35 -29 -66 -29 -69 0 -3
-29 -63 -65 -134 -270 -533 -665 -980 -1160 -1312 -124 -84 -371 -221 -485
-271 -36 -15 -80 -34 -98 -43 -113 -51 -422 -149 -562 -179 -105 -22 -373 -64
-455 -70 -172 -14 -675 -7 -705 11 -3 1 -29 5 -58 9 -547 65 -1122 301 -1587
652 -178 134 -226 175 -365 315 -92 92 -125 128 -221 239 -12 14 -59 75 -104
135 -275 367 -480 798 -584 1225 -29 119 -65 312 -75 410 -3 25 -8 74 -13 110
-15 131 -6 681 12 710 2 3 6 36 10 75 3 38 8 72 10 75 2 3 6 26 10 50 11 76
42 209 80 340 330 1149 1226 2035 2387 2359 129 36 319 74 428 86 30 4 60 8
67 10 7 2 52 7 100 11 48 4 89 8 91 9 5 5 514 -4 542 -9z"/>
<path d="M5610 6813 c-214 -16 -420 -91 -598 -218 -116 -83 -2171 -2144 -2238
-2245 -157 -235 -219 -485 -190 -770 9 -91 47 -231 87 -323 183 -417 588 -680
1044 -679 169 1 296 28 450 95 198 86 170 60 1320 1209 1066 1065 1114 1116
1198 1268 32 58 112 270 102 270 -2 0 1 15 6 33 21 69 29 257 16 362 -41 331
-225 627 -502 809 -107 71 -142 88 -265 129 -147 49 -295 69 -430 60z m230
-217 c220 -36 444 -173 588 -362 76 -99 152 -278 169 -397 15 -103 7 -306 -16
-392 -30 -111 -99 -249 -170 -337 -32 -40 -196 -210 -364 -377 -292 -291 -305
-302 -299 -265 9 56 6 302 -5 349 l-9 40 221 223 c237 238 278 292 318 417 32
101 31 282 -1 376 -74 216 -264 383 -477 420 -88 15 -222 6 -305 -20 -134 -43
-156 -62 -712 -620 -556 -558 -556 -557 -604 -701 -28 -83 -27 -271 3 -365 43
-135 139 -262 258 -339 64 -42 120 -64 217 -85 l77 -16 -128 -128 -129 -128
-60 25 c-331 139 -551 459 -566 820 -7 151 29 316 96 450 68 136 131 206 655
726 457 454 527 521 598 562 131 76 227 108 395 132 29 4 213 -2 250 -8z m-27
-534 c125 -44 216 -140 261 -276 28 -85 10 -228 -40 -314 -14 -24 -102 -121
-197 -217 l-171 -174 -38 70 c-76 140 -193 279 -315 371 -57 44 -180 118 -216
131 -14 5 17 41 157 181 97 96 197 186 223 201 99 55 226 66 336 27z m-837
-586 c219 -86 413 -282 503 -507 51 -128 65 -200 65 -349 0 -109 -5 -152 -23
-220 -30 -112 -88 -235 -156 -329 -69 -96 -1013 -1038 -1105 -1103 -82 -58
-164 -99 -260 -131 -94 -31 -130 -37 -255 -42 -351 -14 -675 173 -845 487 -35
66 -74 168 -86 223 -2 11 -8 43 -13 70 -14 71 -7 278 12 355 35 142 93 256
187 373 32 40 191 205 355 367 268 267 296 292 290 260 -12 -68 -12 -221 1
-307 l12 -88 -214 -215 c-117 -118 -222 -226 -232 -240 -137 -181 -159 -439
-56 -649 51 -103 171 -224 271 -274 216 -106 481 -81 661 62 50 41 321 309
773 767 252 254 279 286 312 354 48 99 67 176 67 277 0 170 -57 313 -176 439
-89 93 -273 183 -377 184 -25 0 -16 12 100 130 71 71 128 130 129 130 0 0 27
-11 60 -24z m-234 -466 c226 -70 344 -318 259 -542 -21 -54 -25 -58 -78 -78
-287 -107 -585 113 -560 413 8 88 45 173 84 189 104 42 199 48 295 18z m-986
-752 c102 -203 275 -379 480 -490 l76 -41 -175 -172 c-192 -190 -249 -228
-362 -243 -75 -10 -173 5 -240 38 -70 34 -160 126 -191 197 -53 119 -45 266
20 378 16 28 104 125 195 217 91 92 167 167 168 167 2 1 15 -23 29 -51z"/>
<path d="M7761 7406 c-49 -27 -66 -100 -34 -146 9 -14 20 -27 24 -30 3 -3 58
-73 120 -157 226 -301 366 -555 543 -985 34 -82 70 -106 135 -88 53 14 84 72
69 128 -6 20 -13 42 -18 47 -4 6 -14 30 -22 55 -36 105 -173 389 -263 545 -60
104 -189 304 -235 365 -126 165 -213 269 -232 274 -35 9 -61 7 -87 -8z"/>
<path d="M1530 7399 c-45 -18 -268 -317 -408 -547 -130 -211 -337 -651 -355
-753 -17 -92 107 -154 171 -86 11 12 37 65 57 117 141 361 348 723 581 1017
96 120 103 134 97 180 -9 60 -82 97 -143 72z"/>
<path d="M8731 4799 c-29 -11 -61 -46 -62 -68 -1 -9 -2 -48 -4 -87 -4 -127
-16 -314 -21 -357 -24 -187 -49 -342 -75 -452 -17 -71 -32 -141 -35 -153 -3
-13 -25 -90 -51 -170 -70 -223 -68 -215 -53 -252 25 -60 121 -78 164 -31 17
19 73 169 101 271 59 210 109 432 120 525 4 28 8 57 10 65 3 8 7 40 11 70 3
30 7 66 9 80 10 75 19 232 19 362 1 145 1 148 -24 173 -28 28 -72 38 -109 24z"/>
<path d="M561 4769 c-12 -11 -26 -32 -31 -45 -13 -34 -4 -303 16 -474 3 -25 7
-61 9 -80 26 -278 184 -885 248 -947 38 -37 97 -34 138 6 37 38 37 65 0 178
-61 184 -112 371 -135 493 -3 14 -9 48 -15 77 -6 29 -13 74 -17 100 -3 26 -8
56 -10 67 -2 10 -6 51 -10 90 -3 39 -8 74 -10 77 -2 3 -6 80 -9 170 -9 245 -9
250 -45 282 -38 34 -95 37 -129 6z"/>
<path d="M7800 2179 c-26 -5 -51 -25 -100 -81 -71 -80 -302 -313 -365 -368
-180 -157 -376 -303 -548 -408 -51 -31 -105 -67 -120 -78 -69 -55 -28 -174 62
-176 69 -2 475 277 736 506 148 129 415 408 444 463 38 72 -29 159 -109 142z"/>
<path d="M1530 2163 c-38 -26 -49 -45 -50 -84 0 -48 33 -92 210 -274 123 -127
201 -200 320 -300 52 -44 97 -82 100 -85 14 -16 139 -106 250 -182 254 -172
303 -192 358 -151 38 29 53 70 38 113 -8 27 -26 44 -75 75 -425 267 -681 482
-981 820 -30 33 -63 65 -74 72 -30 17 -68 16 -96 -4z"/>
<path d="M3950 783 c-27 -10 -49 -35 -60 -69 -9 -27 -8 -40 6 -70 23 -47 49
-57 204 -78 69 -9 139 -19 155 -21 203 -30 701 -24 960 10 66 9 138 19 160 22
67 8 108 33 124 76 13 34 12 42 -3 73 -28 59 -78 72 -198 49 -11 -3 -46 -7
-77 -10 -31 -4 -67 -8 -81 -11 -143 -25 -833 -25 -912 0 -7 3 -35 7 -63 10
-27 3 -74 10 -104 16 -58 11 -87 12 -111 3z"/>
</g>
</svg>
