<svg height="512pt" viewBox="0 -55 512.0005 512" width="512pt" xmlns="http://www.w3.org/2000/svg"><g fill-rule="evenodd"><path d="m10 10h359.554688v58.164062h-359.554688zm0 0" fill="#55b2ff"/><path d="m10 68.164062h359.554688v63.199219c-54.371094 0-98.449219 44.074219-98.449219 98.449219h-261.105469zm0 0" fill="#d0ec7e"/><path d="m10 229.8125h261.105469c0 54.371094 44.078125 98.449219 98.449219 98.449219v63.199219h-359.554688zm0 0" fill="#ffe6bf"/><path d="m369.554688 328.261719c54.226562 0 98.449218-44.226563 98.449218-98.449219 0-54.226562-44.226562-98.449219-98.449218-98.449219-54.222657 0-98.449219 44.226563-98.449219 98.449219s44.226562 98.449219 98.449219 98.449219zm0 0" fill="#55b2ff"/><path d="m509.070312 355.183594-56.121093-56.121094c15.636719-18.796875 25.054687-42.945312 25.054687-69.25 0-56.429688-43.320312-102.921875-98.449218-107.984375v-111.828125c0-5.523438-4.476563-10-10-10h-139.777344c-5.523438 0-10 4.476562-10 10s4.476562 10 10 10h129.777344v38.164062h-339.554688v-38.164062h129.777344c5.523437 0 10-4.476562 10-10s-4.476563-10-10-10h-139.777344c-5.523438 0-10 4.476562-10 10v381.460938c0 5.519531 4.476562 10 10 10h359.554688c5.523437 0 10-4.480469 10-10v-53.667969c22.40625-2.058594 42.863281-10.953125 59.253906-24.589844l56.121094 56.125c1.953124 1.949219 4.511718 2.925781 7.070312 2.925781s5.117188-.976562 7.070312-2.925781c3.90625-3.90625 3.90625-10.238281 0-14.144531zm-51.066406-125.371094c0 48.769531-39.675781 88.449219-88.449218 88.449219-48.769532 0-88.449219-39.679688-88.449219-88.449219 0-48.773438 39.679687-88.449219 88.449219-88.449219 48.773437 0 88.449218 39.675781 88.449218 88.449219zm-98.449218-151.648438v43.664063c-51.832032 4.761719-93.21875 46.148437-97.980469 97.984375h-241.574219v-141.648438zm-339.554688 303.296876v-141.648438h241.570312c4.765626 51.832031 46.152344 93.222656 97.984376 97.980469v43.667969zm0 0"/><path d="m174.421875 259.53125h-123.882813c-5.519531 0-10 4.480469-10 10 0 5.523438 4.480469 10 10 10h123.882813c5.519531 0 10-4.476562 10-10s-4.480469-10-10-10zm0 0"/><path d="m174.421875 300.636719h-123.882813c-5.519531 0-10 4.476562-10 10 0 5.523437 4.480469 10 10 10h123.882813c5.519531 0 10-4.476563 10-10 0-5.523438-4.480469-10-10-10zm0 0"/><path d="m174.421875 341.742188h-123.882813c-5.519531 0-10 4.476562-10 10 0 5.519531 4.480469 10 10 10h123.882813c5.519531 0 10-4.480469 10-10 0-5.523438-4.480469-10-10-10zm0 0"/><path d="m90.300781 186.902344c1.878907 1.875 4.421875 2.929687 7.070313 2.929687 2.652344 0 5.195312-1.054687 7.074218-2.929687l60.429688-60.429688c3.902344-3.90625 3.902344-10.238281 0-14.140625-3.90625-3.90625-10.238281-3.90625-14.144531 0l-53.359375 53.355469-23.140625-23.140625c-3.90625-3.902344-10.234375-3.90625-14.144531 0-3.902344 3.90625-3.902344 10.238281 0 14.140625zm0 0"/><path d="m189.777344 20c5.507812 0 10-4.492188 10-10s-4.492188-10-10-10c-5.507813 0-10 4.492188-10 10s4.492187 10 10 10zm0 0"/></g></svg>